<svg width="688" height="128" fill="none" xmlns="http://www.w3.org/2000/svg"><path fill-rule="evenodd" clip-rule="evenodd" d="M252.814 79.987c.415.998.826 2.004 1.23 3.016.403-1.042.822-2.07 1.252-3.083.433-1.013.893-1.98 1.382-2.907l18.48-34.755c.228-.433.467-.78.71-1.042a2.21 2.21 0 01.822-.565 3.63 3.63 0 011.017-.216c.373-.027.818-.041 1.337-.041h8.764v62.741h-10.232V62.606c0-.75.022-1.577.063-2.473.045-.897.109-1.81.195-2.732l-18.869 35.58c-.429.811-.99 1.439-1.681 1.887-.692.449-1.495.673-2.418.673h-1.6c-.919 0-1.726-.224-2.418-.673-.691-.448-1.251-1.076-1.681-1.887L230.041 57.27c.115.953.194 1.887.239 2.8.045.91.067 1.755.067 2.536v40.529h-10.236V40.394h8.764c.515 0 .96.014 1.338.04.373.03.713.102 1.012.217.303.116.583.303.841.565.262.261.505.609.736 1.042l18.648 34.845c.493.926.946 1.887 1.364 2.885zM345.732 93.134c2.235 0 4.23-.37 5.99-1.117 1.761-.744 3.248-1.786 4.466-3.132 1.219-1.345 2.145-2.974 2.792-4.891.643-1.918.968-4.063.968-6.44V40.39h11.551v37.165c0 3.692-.598 7.104-1.783 10.235-1.188 3.132-2.896 5.838-5.131 8.114-2.234 2.276-4.94 4.047-8.113 5.321-3.18 1.271-6.756 1.91-10.733 1.91-3.979 0-7.556-.639-10.732-1.91-3.177-1.27-5.875-3.045-8.091-5.321-2.22-2.276-3.924-4.978-5.109-8.114-1.188-3.131-1.782-6.543-1.782-10.235V40.39h11.551v37.124c0 2.373.321 4.518.964 6.435.647 1.92 1.57 3.558 2.769 4.914 1.2 1.36 2.684 2.41 4.444 3.154 1.749.748 3.744 1.117 5.979 1.117zM436.191 52.038c-.318.632-.684 1.073-1.103 1.33-.418.258-.915.386-1.491.386-.575 0-1.225-.221-1.947-.666a74.14 74.14 0 00-2.552-1.48c-.983-.541-2.127-1.035-3.438-1.48-1.312-.44-2.863-.665-4.649-.665-1.615 0-3.02.191-4.215.58-1.2.385-2.205.923-3.027 1.607a6.445 6.445 0 00-1.839 2.466c-.407.957-.609 2.01-.609 3.15 0 1.458.411 2.672 1.233 3.644.822.972 1.91 1.801 3.266 2.489 1.353.684 2.896 1.3 4.627 1.842 1.73.542 3.494 1.125 5.299 1.738a51.016 51.016 0 015.299 2.145 18.39 18.39 0 014.63 3.087c1.353 1.244 2.444 2.765 3.266 4.566.822 1.802 1.233 3.988 1.233 6.563 0 2.802-.482 5.426-1.45 7.87a18.203 18.203 0 01-4.237 6.39c-1.861 1.816-4.133 3.244-6.813 4.287-2.683 1.042-5.755 1.565-9.215 1.565-1.989 0-3.951-.19-5.883-.579a31.209 31.209 0 01-5.56-1.652 28.838 28.838 0 01-4.971-2.57 24.26 24.26 0 01-4.129-3.345l3.371-5.531c.317-.4.702-.736 1.147-1.01.449-.268.946-.406 1.495-.406.717 0 1.498.29 2.336.878a69.076 69.076 0 002.963 1.95c1.14.718 2.481 1.364 4.021 1.951 1.543.587 3.397.878 5.557.878 3.315 0 5.882-.777 7.702-2.335 1.813-1.559 2.724-3.797 2.724-6.712 0-1.63-.411-2.96-1.233-3.987-.822-1.028-1.909-1.895-3.262-2.594-1.357-.699-2.896-1.293-4.63-1.779a152.048 152.048 0 01-5.277-1.584 45.727 45.727 0 01-5.277-2.06 16.983 16.983 0 01-4.626-3.131c-1.357-1.286-2.444-2.896-3.266-4.825-.823-1.928-1.234-4.308-1.234-7.137 0-2.258.452-4.462 1.364-6.604.908-2.145 2.235-4.047 3.98-5.702 1.745-1.66 3.887-2.986 6.42-3.988 2.538-1.001 5.434-1.502 8.693-1.502 3.692 0 7.093.572 10.206 1.715 3.113 1.144 5.766 2.743 7.956 4.802l-2.855 5.445zM516.231 71.785c0-3.416-.449-6.48-1.342-9.193-.893-2.713-2.182-5.015-3.856-6.91-1.675-1.895-3.715-3.345-6.114-4.35-2.403-1.005-5.109-1.506-8.125-1.506-3.012 0-5.725.504-8.143 1.506-2.414 1.005-4.469 2.455-6.158 4.35-1.693 1.895-2.99 4.197-3.902 6.91-.908 2.713-1.364 5.777-1.364 9.193 0 3.415.456 6.48 1.364 9.193.909 2.713 2.209 5.008 3.902 6.891 1.689 1.88 3.744 3.322 6.158 4.328 2.415 1.005 5.131 1.505 8.143 1.505 3.013 0 5.718-.5 8.125-1.505 2.399-1.006 4.439-2.448 6.114-4.328 1.678-1.88 2.963-4.178 3.856-6.891.893-2.713 1.342-5.778 1.342-9.193zm13.001-.023c0 4.545-.766 8.756-2.295 12.628-1.528 3.875-3.673 7.227-6.442 10.056-2.766 2.83-6.095 5.038-9.986 6.626-3.89 1.588-8.199 2.38-12.926 2.38s-9.04-.796-12.945-2.38c-3.905-1.585-7.25-3.793-10.03-6.626-2.781-2.832-4.937-6.18-6.462-10.056-1.528-3.872-2.294-8.083-2.294-12.628 0-4.544.766-8.755 2.294-12.627 1.525-3.872 3.681-7.224 6.462-10.056 2.78-2.833 6.125-5.038 10.03-6.626 3.905-1.585 8.218-2.38 12.945-2.38s9.036.799 12.926 2.402c3.891 1.603 7.22 3.812 9.986 6.626 2.769 2.818 4.914 6.162 6.442 10.034 1.529 3.875 2.295 8.083 2.295 12.627z" fill="#fff"/><path d="M165.689 100.81c.026-12.268.03-24.537.034-36.81v-.01-.016-.015-.01c0-12.27-.008-24.538-.034-36.81-.004-2.411.127-4.836.037-7.25v-.038c0-.045-.007-.086-.007-.13-.008-.165-.015-.33-.026-.494a19.854 19.854 0 00-.508-3.913c-.03-.134-.049-.265-.079-.4a3.994 3.994 0 00-.146-.478C162.602 6.11 154.96 0 145.875 0c-5.557 0-10.572 2.287-14.174 5.964-8.121 7.437-29.736 29.912-46.859 47.173a2.763 2.763 0 01-3.92 0C63.762 35.846 42.016 13.25 33.902 5.826a20.85 20.85 0 00-1.752-1.543c-.449-.374-.8-.636-1.05-.785A19.772 19.772 0 0019.855 0C14.096 0 8.928 2.466 5.303 6.38c-1.977 1.957-3.37 4.342-4.238 7.103A19.766 19.766 0 000 19.855c0 .157.078 5.019.071 7.287C.045 39.411.041 51.68.037 63.952V64.004c0 8.977.02 43.821.023 57.969a6.023 6.023 0 006.028 6.021 6.028 6.028 0 006.028-6.028l.003-101.494c0-3.809 2.934-7.127 6.742-7.243a6.952 6.952 0 017.168 6.951l.003 80.227a4.557 4.557 0 004.56 4.555c2.518 0 4.559-2.04 4.559-4.559V44.048c0-3.808 2.933-7.13 6.741-7.242a6.952 6.952 0 017.168 6.951l.022 33.529a4.649 4.649 0 009.298-.004l-.004-20.868c0-2.455 2.964-3.692 4.705-1.962 15.154 15.03 62.065 61.523 68.62 67.529 3.602 3.677 8.621 5.964 14.174 5.964 9.085 0 16.727-6.11 19.089-14.44.06-.164.108-.325.146-.478.033-.135.052-.266.078-.4.296-1.263.467-2.571.509-3.913.007-.164.018-.329.026-.493 0-.045.007-.086.007-.131v-.037c.086-2.407-.045-4.832-.041-7.243zm-58.305-29.317c0 2.463-2.975 3.696-4.716 1.955l-7.52-7.52a2.763 2.763 0 010-3.908l7.52-7.519c1.741-1.741 4.716-.508 4.716 1.954v15.038zm23.225 12.9a6.953 6.953 0 01-6.954 6.955 6.954 6.954 0 01-6.955-6.954V43.559a6.954 6.954 0 016.955-6.955 6.953 6.953 0 016.954 6.955v40.835zm23.028 23.581a6.954 6.954 0 01-6.955 6.955 6.954 6.954 0 01-6.954-6.955V19.978a6.954 6.954 0 016.954-6.954 6.954 6.954 0 016.955 6.954v87.996z" fill="url(#paint0_linear)"/><path d="M554.864 87.506c4.757.008 8.479 3.764 8.45 8.525-.03 4.783-3.756 8.468-8.543 8.445-4.817-.022-8.457-3.703-8.446-8.543.011-4.783 3.711-8.434 8.539-8.427zM687.72 40.562h-9.56v62.405h9.56V40.562zM649.897 101.431c-6.562-16.701-13.121-33.406-19.683-50.106l-4.01-10.322a.955.955 0 00-.893-.613h-7.709a5.419 5.419 0 00-5.045 3.45l-.748 1.924c-.003.007-.007.011-.011.022-3.285 8.405-6.562 16.81-9.855 25.21-4.013 10.243-8.023 20.487-12.074 30.711-.433 1.091-.288 1.368.912 1.346 2.541-.049 5.082.033 7.624.078 2.391.041 3.781-.882 4.637-3.18 1.342-3.61 2.68-7.224 3.95-10.86.314-.904.729-1.215 1.719-1.21 7.123.033 14.25-.012 21.372-.02 2.172-.003 2.493.25 3.143 2.299 1.043 3.288 2.216 6.525 3.629 9.675.852 1.902 2.145 3.18 4.38 3.199 2.492.022 4.981.082 7.474.09 1.846.003 1.842-.023 1.188-1.693zm-21.66-22.314c-5.792-.026-11.581-.011-17.553-.011 3.087-8.468 6.114-16.787 9.265-25.43 1.696 4.693 3.277 9.058 4.858 13.422 1.326 3.666 2.649 7.333 3.995 10.991.216.61.403 1.032-.565 1.028z" fill="#fff"/><defs><linearGradient id="paint0_linear" x1="0" y1="63.996" x2="165.757" y2="63.996" gradientUnits="userSpaceOnUse"><stop offset=".001" stop-color="#00CAA7"/><stop offset="1" stop-color="#00A6AF"/></linearGradient></defs></svg>