<svg xmlns="http://www.w3.org/2000/svg" xmlns:xlink="http://www.w3.org/1999/xlink" viewBox="0 0 201.5 155.57"><defs><style>.cls-1{fill:url(#linear-gradient);}</style><linearGradient id="linear-gradient" y1="77.79" x2="201.5" y2="77.79" gradientUnits="userSpaceOnUse"><stop offset="0" stop-color="#00c9a9"/><stop offset="1" stop-color="#00a1af"/></linearGradient></defs><title>MusoM</title><g id="Layer_2" data-name="Layer 2"><g id="Layer_1-2" data-name="Layer 1"><path class="cls-1" d="M0,149.57v-129c1.78-3.68,3-7.85,5.45-11C14.69-2,31.15-2.51,41.93,8.22Q69,35.19,96,62.26c3.28,3.28,5.63,3.27,8.94,0Q123.13,44,141.32,25.84c6.6-6.59,13-13.35,19.88-19.68,9.58-8.86,24.77-8,33.77,1.5,3.5,3.68,5.21,8.18,6.53,12.91v114.5a5.79,5.79,0,0,0-.49,1.08c-2,9.21-7.67,15.18-16.5,18.24-1.32.46-2.67.79-4,1.18h-7c-5.11-1.37-9.8-3.45-13.64-7.3q-27.59-27.56-55.27-55L81,69.8A38.21,38.21,0,0,0,77,66a3.57,3.57,0,0,0-2.88-.67c-.8.3-1.39,1.49-1.79,2.41A5.88,5.88,0,0,0,72.26,70c0,7.41,0,14.83,0,22.24,0,3.89-2.82,6.34-6.44,5.83-2.94-.41-4.77-2.88-4.78-6.6,0-12.41,0-24.83-.14-37.24a10.21,10.21,0,0,0-1-4.53,8.23,8.23,0,0,0-9.41-3.92,8.52,8.52,0,0,0-6.32,8.57q0,31.87,0,63.74a22.91,22.91,0,0,1-.07,2.75,5.42,5.42,0,0,1-5.2,4.81c-3.62.16-5.89-2.28-5.89-6.44q0-45.75,0-91.5c0-.83,0-1.67,0-2.5-.44-5.05-4.12-8.74-8.61-8.7-5,0-8.36,3.72-8.36,9.18,0,39.75-.05,79.5.06,119.24,0,4.91-1.3,8.6-6,10.64H6A10.75,10.75,0,0,1,0,149.57Zm185.58-72V60.31c0-11.82,0-23.65,0-35.47,0-5.47-3.75-9.07-8.95-8.84-4.63.2-8,4.28-8,9.69q0,52.1,0,104.18c0,.5,0,1,0,1.5a8.78,8.78,0,0,0,9,8.21c4.71-.2,8-3.84,8-9.06Q185.62,104,185.58,77.55Zm-45.16.31c0,8.25-.1,16.49.08,24.74a8.94,8.94,0,0,0,1.73,5c2.54,3.32,6.19,4.3,9.51,3,3.63-1.35,5.66-4.46,5.67-8.82q0-24,0-48c0-5.31-3.61-9.22-8.43-9.25-5,0-8.54,3.79-8.56,9.29C140.4,61.87,140.42,69.86,140.42,77.86Zm-11.34,0c0-3,.18-6-.09-9a4.42,4.42,0,0,0-2-3.25,4.3,4.3,0,0,0-3.66.93c-3,2.64-5.73,5.54-8.51,8.4-1.87,1.92-1.92,3.75-.06,5.69,2.81,2.94,5.63,5.89,8.68,8.58a4.34,4.34,0,0,0,3.74.7c.89-.34,1.68-2,1.78-3.12C129.24,83.82,129.08,80.82,129.08,77.83Z"/></g></g></svg>