<svg width="103" height="29" fill="none" xmlns="http://www.w3.org/2000/svg"><path fill-rule="evenodd" clip-rule="evenodd" d="M14.973 1c.16 1.523-.421 3.051-1.283 4.15-.861 1.098-2.275 1.953-3.659 1.84-.19-1.492.51-3.048 1.308-4.02.891-1.099 2.393-1.918 3.634-1.97zm4.372 8.379c-.223.132-2.67 1.574-2.642 4.505.033 3.541 3.175 4.75 3.294 4.797H20l-.005.015a12.875 12.875 0 01-1.695 3.36c-1.024 1.443-2.086 2.883-3.76 2.914-.804.014-1.341-.21-1.9-.444-.585-.245-1.193-.5-2.154-.5-1.007 0-1.643.262-2.256.515-.532.218-1.046.43-1.769.457-1.616.06-2.845-1.562-3.878-3-2.108-2.946-3.72-8.322-1.555-11.95C2.102 8.247 4.023 7.106 6.11 7.077c.899-.017 1.77.316 2.532.608.582.223 1.101.421 1.52.421.377 0 .882-.192 1.47-.416.927-.353 2.063-.785 3.232-.67.802.033 3.05.312 4.494 2.352a8.706 8.706 0 01-.013.008z" fill="#F7F7F7"/><path d="M37.475 25h1.66L34.46 12.317h-1.565L28.22 25h1.66l1.275-3.63H36.2L37.475 25zM33.65 14.242h.053l2.03 5.783h-4.113l2.03-5.783zm11.136 1.46c-1.327 0-2.39.676-2.953 1.704h-.035V15.86h-1.45v12.19h1.529v-4.534h.035c.545 1.002 1.6 1.643 2.91 1.643 2.302 0 3.875-1.863 3.875-4.728 0-2.866-1.582-4.729-3.91-4.729zm-.299 8.112c-1.564 0-2.619-1.345-2.619-3.384 0-2.03 1.055-3.384 2.62-3.384 1.625 0 2.645 1.318 2.645 3.384 0 2.074-1.02 3.384-2.646 3.384zM54.684 15.7c-1.328 0-2.391.677-2.953 1.705h-.036V15.86h-1.45v12.19h1.53v-4.534h.035c.544 1.002 1.6 1.643 2.909 1.643 2.303 0 3.876-1.863 3.876-4.728 0-2.866-1.582-4.729-3.911-4.729zm-.3 8.113c-1.564 0-2.618-1.345-2.618-3.384 0-2.03 1.054-3.384 2.619-3.384 1.626 0 2.645 1.318 2.645 3.384 0 2.074-1.02 3.384-2.645 3.384zm9.071-2.215c.15 2.188 1.995 3.612 4.764 3.612 2.839 0 4.684-1.468 4.684-3.814 0-1.793-1.046-2.848-3.691-3.428l-1.406-.308c-1.732-.378-2.409-1.063-2.409-2.065 0-1.292 1.222-2.066 2.804-2.066 1.653 0 2.751.853 2.892 2.242h1.582c-.07-2.154-1.899-3.666-4.43-3.666-2.628 0-4.474 1.468-4.474 3.56 0 1.802 1.1 2.953 3.64 3.507l1.405.308c1.758.386 2.461 1.09 2.461 2.153 0 1.248-1.248 2.153-2.97 2.153-1.82 0-3.085-.826-3.27-2.188h-1.582zm11.558-7.946v2.206H73.65v1.257h1.363v5.511c0 1.758.65 2.443 2.329 2.443.36 0 .782-.026.967-.07v-1.283a5.946 5.946 0 01-.633.044c-.782 0-1.134-.378-1.134-1.213v-5.432h1.775V15.86h-1.775v-2.206h-1.53zm8.464 11.505c2.522 0 4.227-1.82 4.227-4.728 0-2.918-1.705-4.729-4.227-4.729-2.532 0-4.237 1.81-4.237 4.729 0 2.909 1.705 4.728 4.237 4.728zm0-1.345c-1.618 0-2.681-1.23-2.681-3.383 0-2.154 1.063-3.384 2.68-3.384 1.618 0 2.672 1.23 2.672 3.384 0 2.153-1.054 3.384-2.671 3.384zM89.25 25h1.53v-5.695c0-1.292.773-2.145 1.96-2.145.368 0 .694.044.817.088v-1.485c-.123-.018-.352-.062-.616-.062-1.072 0-1.916.642-2.214 1.652h-.036V15.86h-1.441V25zm8.78-7.972c1.442 0 2.4 1.09 2.435 2.62H95.5c.097-1.521 1.099-2.62 2.531-2.62zm2.4 5.353c-.255.861-1.108 1.45-2.268 1.45-1.644 0-2.672-1.151-2.672-2.9v-.088h6.557v-.58c0-2.769-1.521-4.562-3.99-4.562-2.523 0-4.14 1.925-4.14 4.764 0 2.874 1.59 4.693 4.21 4.693 1.995 0 3.542-1.178 3.806-2.777h-1.503zM28.684.954V8h2.368c2.095 0 3.325-1.304 3.325-3.525 0-2.217-1.235-3.52-3.325-3.52h-2.368zm.878.791h1.431c1.602 0 2.485.977 2.485 2.74 0 1.747-.888 2.724-2.485 2.724h-1.43V1.745zm7.881 6.343c1.402 0 2.349-1.01 2.349-2.627 0-1.621-.947-2.627-2.349-2.627-1.406 0-2.353 1.006-2.353 2.627 0 1.616.947 2.627 2.353 2.627zm0-.747c-.898 0-1.489-.684-1.489-1.88 0-1.196.59-1.88 1.49-1.88.898 0 1.484.684 1.484 1.88 0 1.196-.586 1.88-1.485 1.88zm9.668-4.42h-.84l-1.015 4.132h-.02l-1.152-4.131h-.82l-1.148 4.13h-.02l-1.015-4.13h-.845L41.657 8h.865l1.142-3.93h.02L44.83 8h.864l1.416-5.078zM47.81 8h.85V5.012c0-.86.522-1.426 1.322-1.426.782 0 1.167.45 1.167 1.27V8H52V4.704c0-1.152-.645-1.87-1.758-1.87-.786 0-1.328.352-1.611.898h-.02v-.81h-.8V8zm5.317 0h.85V.954h-.85V8zm4.101.088c1.402 0 2.35-1.01 2.35-2.627 0-1.621-.948-2.627-2.35-2.627-1.406 0-2.353 1.006-2.353 2.627 0 1.616.947 2.627 2.353 2.627zm0-.747c-.898 0-1.489-.684-1.489-1.88 0-1.196.591-1.88 1.49-1.88.898 0 1.484.684 1.484 1.88 0 1.196-.586 1.88-1.485 1.88zm4.883.024c-.61 0-1.015-.317-1.015-.8 0-.48.39-.782 1.074-.826l1.357-.083v.415c0 .733-.615 1.294-1.416 1.294zm-.19.723c.684 0 1.328-.381 1.63-.962h.02V8h.806V4.49c0-1.011-.752-1.656-1.943-1.656-1.202 0-1.953.674-2.012 1.553h.82c.108-.498.518-.806 1.172-.806.703 0 1.113.371 1.113.991v.425l-1.455.083c-1.172.068-1.84.615-1.84 1.484 0 .914.678 1.524 1.689 1.524zm5.459 0c.732 0 1.313-.361 1.64-.947h.015V8h.81V.954h-.849v2.793h-.02c-.302-.557-.888-.913-1.616-.913-1.279 0-2.153 1.035-2.153 2.627 0 1.592.879 2.627 2.173 2.627zm.161-4.507c.874 0 1.46.747 1.46 1.88 0 1.138-.586 1.88-1.46 1.88-.898 0-1.465-.728-1.465-1.88 0-1.148.567-1.88 1.465-1.88zm7.607 4.507c1.402 0 2.35-1.01 2.35-2.627 0-1.621-.948-2.627-2.35-2.627-1.406 0-2.353 1.006-2.353 2.627 0 1.616.947 2.627 2.353 2.627zm0-.747c-.898 0-1.489-.684-1.489-1.88 0-1.196.591-1.88 1.49-1.88.898 0 1.484.684 1.484 1.88 0 1.196-.586 1.88-1.485 1.88zM78.356 8h.85V5.012c0-.86.522-1.426 1.323-1.426.782 0 1.167.45 1.167 1.27V8h.85V4.704c0-1.152-.645-1.87-1.758-1.87-.786 0-1.328.352-1.611.898h-.02v-.81h-.8V8zm7.598-6.304v1.226h-.757v.698h.757v3.062c0 .976.361 1.357 1.294 1.357.2 0 .435-.015.537-.039v-.713c-.058.01-.254.025-.351.025-.435 0-.63-.21-.63-.674V3.62h.986v-.698h-.986V1.696h-.85zM88.742 8h.85V5.041c0-.879.522-1.455 1.367-1.455.796 0 1.201.483 1.201 1.289V8h.85V4.719c0-1.133-.674-1.885-1.787-1.885-.772 0-1.329.332-1.612.898h-.02V.954h-.849V8zm7.383-4.429c.8 0 1.333.606 1.353 1.455h-2.76c.054-.844.611-1.455 1.407-1.455zm1.333 2.974c-.142.478-.615.806-1.26.806-.913 0-1.484-.64-1.484-1.612V5.69h3.642v-.322c0-1.538-.844-2.534-2.216-2.534-1.402 0-2.3 1.07-2.3 2.646 0 1.597.884 2.608 2.339 2.608 1.108 0 1.968-.654 2.114-1.543h-.835z" fill="#F7F7F7"/></svg>