<svg width="20" height="20" fill="none" viewBox="0 0 20 20" xmlns="http://www.w3.org/2000/svg"><path d="M7.15 18c-2.53-.015-4.622-5.18-4.622-7.81 0-4.296 3.223-5.237 4.465-5.237.56 0 1.158.22 1.685.414.369.136.75.276.962.276.127 0 .426-.119.69-.224.563-.224 1.264-.502 2.08-.502h.005c.61 0 2.457.133 3.568 1.801l.26.392-.374.282c-.535.404-1.511 1.14-1.511 2.599 0 1.727 1.105 2.392 1.636 2.711.235.141.478.287.478.605 0 .208-1.658 4.667-4.065 4.667-.589 0-1.005-.177-1.373-.333-.371-.158-.692-.294-1.221-.294-.269 0-.608.127-.968.261-.49.184-1.047.392-1.678.392h-.016zM12.665 1c.063 2.26-1.554 3.828-3.168 3.73C9.23 2.926 11.11 1 12.665 1z" fill="#0C0B09"/></svg>