<svg viewBox="0 0 19 22" fill="#fff" xmlns="http://www.w3.org/2000/svg">
  <path fill-rule="evenodd" clip-rule="evenodd"
    d="M3.959 3.428a2.5 2.5 0 114.83-1.294l.367 1.372a8.003 8.003 0 017.28 5.918l1.287 4.805.518 1.932-1.932.518-3.897 1.044a3.5 3.5 0 01-6.695 1.794l-.998.268-1.932.517-.518-1.932-1.287-4.805A8.003 8.003 0 014.326 4.8L3.96 3.428zm3.738 15.559a1.5 1.5 0 002.735-.733l-2.735.733zm-.84-16.335l.268 1.001a8.125 8.125 0 00-.966.26L5.89 2.91a.5.5 0 01.965-.26zm8.934 12.095l-1.287-4.805a6 6 0 10-11.59 3.106L4.2 17.853l11.59-3.106z" />
</svg>