<svg width="16" height="16" fill="none" xmlns="http://www.w3.org/2000/svg"><path fill-rule="evenodd" clip-rule="evenodd" d="M5.067.667c-.71 0-1.284.578-1.284 1.291v1.725H.667V4.79h1.572l.428 8.615a2.022 2.022 0 0 0 2.014 1.928h6.638c1.075 0 1.96-.848 2.014-1.928l.429-8.615h1.571V3.683h-3.116V1.958c0-.713-.575-1.291-1.284-1.291H5.067Zm6.05 3.016V1.958a.184.184 0 0 0-.184-.184H5.067a.184.184 0 0 0-.184.184v1.725h6.234ZM3.34 4.79h9.32l-.425 8.56a.92.92 0 0 1-.916.876H4.681a.92.92 0 0 1-.915-.876L3.34 4.79Zm6.73 3.032v3.163h1.1V7.822h-1.1Zm-5.239 0v3.163h1.1V7.822h-1.1ZM7.45 12.04V6.768h1.1v5.271h-1.1Z" fill="#F7F7F7"/></svg>