<svg viewBox="0 0 14 15" fill="#FF3B30" xmlns="http://www.w3.org/2000/svg"><path fill-rule="evenodd" clip-rule="evenodd" d="M4.383.385a1.75 1.75 0 00-1.75 1.75V3.15H0v1.5h1.22l.352 7.053a2.75 2.75 0 002.747 2.613h4.893a2.75 2.75 0 002.747-2.613l.352-7.053h1.22v-1.5h-2.633V2.135a1.75 1.75 0 00-1.75-1.75H4.383zM9.398 3.15V2.135a.25.25 0 00-.25-.25H4.383a.25.25 0 00-.25.25V3.15h5.265zm1.412 1.5H2.722l.348 6.978a1.25 1.25 0 001.249 1.188h4.893a1.25 1.25 0 001.249-1.188l.349-6.978zm-3.278 5.437v-2.9h1.3v2.9h-1.3zm-2.833 0v-2.9H6v2.9H4.7z"/></svg>