<svg width="20" height="20" fill="#F7F7F7" xmlns="http://www.w3.org/2000/svg"><path fill-rule="evenodd" clip-rule="evenodd" d="M7 1.75A1.75 1.75 0 005.25 3.5v1.52H2v1.5h1.572l.441 8.817a2.75 2.75 0 002.747 2.612h6.48a2.75 2.75 0 002.747-2.612l.441-8.817H18v-1.5h-3.25V3.5A1.75 1.75 0 0013 1.75H7zm6.25 3.27V3.5a.25.25 0 00-.25-.25H7a.25.25 0 00-.25.25v1.52h6.5zm-8.176 1.5h9.852l-.437 8.742a1.25 1.25 0 01-1.248 1.187H6.76a1.25 1.25 0 01-1.249-1.187L5.074 6.52zm7.033 3.137v3.428h1.5V9.657h-1.5zm-5.714 0v3.428h1.5V9.657h-1.5zm2.857 4.571V8.514h1.5v5.714h-1.5z"/></svg>