<svg width="9" height="18" viewBox="0 0 9 18" fill="none" xmlns="http://www.w3.org/2000/svg">
  <path fill-rule="evenodd" clip-rule="evenodd" d="M3 2C3 2.82843 2.32843 3.5 1.5 3.5C0.671573 3.5 0 2.82843 0 2C0 1.17157 0.671573 0.5 1.5 0.5C2.32843 0.5 3 1.17157 3 2ZM3 16C3 16.8284 2.32843 17.5 1.5 17.5C0.671572 17.5 0 16.8284 0 16C0 15.1716 0.671572 14.5 1.5 14.5C2.32843 14.5 3 15.1716 3 16ZM1.5 10.5C2.32843 10.5 3 9.82843 3 9C3 8.17157 2.32843 7.5 1.5 7.5C0.671573 7.5 0 8.17157 0 9C0 9.82843 0.671573 10.5 1.5 10.5ZM9 2C9 2.82843 8.32843 3.5 7.5 3.5C6.67157 3.5 6 2.82843 6 2C6 1.17157 6.67157 0.5 7.5 0.5C8.32843 0.5 9 1.17157 9 2ZM9 16C9 16.8284 8.32843 17.5 7.5 17.5C6.67157 17.5 6 16.8284 6 16C6 15.1716 6.67157 14.5 7.5 14.5C8.32843 14.5 9 15.1716 9 16ZM7.5 10.5C8.32843 10.5 9 9.82843 9 9C9 8.17157 8.32843 7.5 7.5 7.5C6.67157 7.5 6 8.17157 6 9C6 9.82843 6.67157 10.5 7.5 10.5Z" fill="#595857"/>
</svg>
