<svg width="104" height="25" fill="none" xmlns="http://www.w3.org/2000/svg"><path d="M33.294 2.95c0 .715-.177 1.34-.623 1.788-.534.536-1.157.804-1.958.804-.801 0-1.425-.268-1.959-.804-.534-.537-.8-1.162-.8-1.967 0-.804.266-1.43.8-1.966C29.288.268 29.912 0 30.713 0c.356 0 .712.09 1.068.268.356.179.623.358.801.626l-.445.447c-.356-.447-.801-.626-1.424-.626-.534 0-1.068.179-1.425.626-.445.357-.623.894-.623 1.52 0 .625.178 1.162.623 1.52.446.357.89.625 1.425.625.623 0 1.068-.179 1.513-.626.267-.268.445-.626.445-1.073h-1.958v-.715h2.581v.358zM37.39.715h-2.404v1.699h2.226v.625h-2.226v1.699h2.404v.715h-3.116V.089h3.116v.626zm2.937 4.738h-.712V.715h-1.513V.09h3.739v.626h-1.514v4.738zm4.095 0V.089h.713v5.364h-.713zm3.74 0h-.713V.715h-1.513V.09h3.65v.626h-1.514v4.738h.09zm8.457-.715c-.535.536-1.158.804-1.959.804-.801 0-1.424-.268-1.958-.804-.535-.537-.802-1.162-.802-1.967 0-.804.267-1.43.802-1.966C53.236.268 53.859 0 54.66 0c.801 0 1.425.268 1.959.805.534.536.8 1.162.8 1.966 0 .805-.266 1.43-.8 1.967zm-3.383-.447c.356.357.89.625 1.424.625.534 0 1.068-.178 1.425-.625a2.16 2.16 0 00.623-1.52c0-.626-.178-1.162-.623-1.52-.357-.357-.89-.625-1.425-.625-.534 0-1.068.179-1.424.625a2.161 2.161 0 00-.623 1.52c0 .626.178 1.162.623 1.52zm5.163 1.162V.089h.801l2.582 4.202V.089h.712v5.364h-.712l-2.76-4.38v4.38H58.4zM51.575 13.45c-2.185 0-3.914 1.704-3.914 4.07 0 2.273 1.73 4.072 3.913 4.072 2.185 0 3.914-1.704 3.914-4.071 0-2.462-1.73-4.071-3.913-4.071zm0 6.438c-1.184 0-2.185-1.042-2.185-2.462 0-1.42 1.001-2.461 2.184-2.461 1.184 0 2.185.946 2.185 2.461 0 1.42-1.001 2.462-2.184 2.462zM43.11 13.45c-2.184 0-3.914 1.704-3.914 4.07 0 2.273 1.73 4.072 3.914 4.072s3.914-1.704 3.914-4.071c0-2.462-1.73-4.071-3.914-4.071zm0 6.438c-1.183 0-2.184-1.042-2.184-2.462 0-1.42 1-2.461 2.184-2.461 1.183 0 2.184.946 2.184 2.461 0 1.42-1 2.462-2.184 2.462zM33.007 14.68v1.705h3.914c-.091.946-.455 1.704-.91 2.177-.547.568-1.457 1.23-3.004 1.23-2.457 0-4.278-1.987-4.278-4.544 0-2.556 1.912-4.544 4.278-4.544 1.274 0 2.276.568 3.004 1.23l1.183-1.23C36.193 9.757 34.918 9 33.098 9 29.822 9 27 11.84 27 15.248c0 3.409 2.822 6.249 6.098 6.249 1.82 0 3.095-.568 4.187-1.799 1.092-1.136 1.456-2.745 1.456-3.976 0-.379 0-.758-.09-1.041h-5.644zm41.322 1.326c-.364-.947-1.275-2.556-3.277-2.556-2.002 0-3.64 1.61-3.64 4.07 0 2.273 1.638 4.072 3.822 4.072 1.73 0 2.822-1.136 3.186-1.8l-1.275-.946c-.455.663-1 1.136-1.911 1.136-.91 0-1.456-.378-1.911-1.23l5.188-2.273-.182-.473zm-5.28 1.325c0-1.514 1.184-2.367 2.003-2.367.637 0 1.274.38 1.456.853L69.05 17.33zm-4.277 3.882h1.73V9.379h-1.73v11.834zm-2.73-6.911c-.456-.474-1.184-.947-2.094-.947-1.911 0-3.732 1.799-3.732 4.071s1.73 3.976 3.732 3.976c.91 0 1.638-.473 2.002-.946h.091v.568c0 1.514-.819 2.366-2.093 2.366-1.001 0-1.73-.757-1.911-1.42l-1.457.663C57.036 23.675 58.128 25 60.04 25c2.002 0 3.64-1.23 3.64-4.166V13.64h-1.638v.663zm-2.003 5.586c-1.183 0-2.184-1.042-2.184-2.462 0-1.42 1-2.461 2.184-2.461 1.183 0 2.093 1.04 2.093 2.461 0 1.42-.91 2.462-2.093 2.462zm22.208-10.51h-4.096v11.835h1.73v-4.45h2.366c1.911 0 3.732-1.42 3.732-3.692 0-2.272-1.82-3.692-3.732-3.692zm.091 5.681h-2.457v-4.07h2.457c1.274 0 2.002 1.135 2.002 1.987-.09 1.042-.819 2.083-2.002 2.083zm10.467-1.704c-1.274 0-2.549.568-3.004 1.799l1.548.663c.364-.663.91-.853 1.547-.853.91 0 1.73.569 1.82 1.515v.095c-.273-.19-1-.473-1.729-.473-1.638 0-3.277.946-3.277 2.65 0 1.61 1.366 2.651 2.822 2.651 1.183 0 1.73-.568 2.184-1.136h.091v.947h1.639v-4.544c-.182-2.083-1.73-3.314-3.641-3.314zm-.182 6.533c-.546 0-1.365-.285-1.365-1.042 0-.947 1-1.23 1.82-1.23.728 0 1.092.189 1.547.378-.182 1.136-1.092 1.894-2.002 1.894zm9.557-6.249l-1.912 5.113h-.091l-2.002-5.113h-1.82l3.003 7.195-1.73 3.977h1.73L104 13.639h-1.82zm-15.291 7.574h1.73V9.379h-1.73v11.834zM2.997 1.79a1.946 1.946 0 00-1.873-.09l10.102 10.157 3.302-3.329L2.997 1.791zm-2.801.85C.069 2.912 0 3.214 0 3.523v18.579c0 .311.069.608.198.873l10.097-10.179L.196 2.641zm11.031 11.091L1.142 23.898c.267.125.552.179.836.179.352 0 .702-.085 1.02-.276l11.533-6.747-3.304-3.322zm7.693-2.637a.176.176 0 00-.012-.008l-3.202-1.87-3.55 3.578 3.552 3.57 3.212-1.878a1.97 1.97 0 00.951-1.696c0-.7-.355-1.334-.95-1.696z" fill="#F7F7F7"/></svg>