<svg width="16" height="16" viewBox="0 0 16 16" fill="none" xmlns="http://www.w3.org/2000/svg">
<path fill-rule="evenodd" clip-rule="evenodd" d="M15.3332 1.2056V0.666626L14.7942 0.666626L10.2646 0.666626V1.74458H13.493L8.75115 6.48642L9.51338 7.24864L14.2552 2.5068L14.2552 5.73517L15.3332 5.73517L15.3332 1.2056ZM1.74446 1.92423C1.74446 1.82501 1.82489 1.74458 1.92411 1.74458H6.12007V0.666627H1.92411C1.22956 0.666627 0.666504 1.22967 0.666504 1.92423V14.0757C0.666504 14.7702 1.22955 15.3333 1.92411 15.3333H14.0756C14.7701 15.3333 15.3332 14.7702 15.3332 14.0757V9.87973H14.2552V14.0757C14.2552 14.1749 14.1748 14.2553 14.0756 14.2553H1.92411C1.82489 14.2553 1.74446 14.1749 1.74446 14.0757V1.92423Z" fill="#F7F7F7"/>
</svg>
