<svg width="25" height="25" fill="none" xmlns="http://www.w3.org/2000/svg"><path d="M12.5 25C19.404 25 25 19.404 25 12.5S19.404 0 12.5 0 0 5.596 0 12.5 5.596 25 12.5 25z" fill="#272625" fill-opacity=".7"/><path d="M15.86 5H9.14A4.144 4.144 0 005 9.14v6.72A4.144 4.144 0 009.14 20h6.72A4.144 4.144 0 0020 15.86V9.14A4.144 4.144 0 0015.86 5zm2.81 10.86a2.812 2.812 0 01-2.81 2.809H9.14a2.812 2.812 0 01-2.81-2.809V9.14a2.812 2.812 0 012.81-2.81h6.72a2.812 2.812 0 012.809 2.81v6.72z" fill="#fff"/><path d="M12.5 8.635A3.87 3.87 0 008.635 12.5a3.87 3.87 0 003.865 3.865 3.87 3.87 0 003.865-3.865A3.87 3.87 0 0012.5 8.635zm0 6.4A2.537 2.537 0 019.966 12.5 2.537 2.537 0 0112.5 9.966a2.537 2.537 0 012.534 2.534 2.537 2.537 0 01-2.534 2.534zM16.527 7.506a.98.98 0 00-.976.976c0 .257.104.509.286.69a.983.983 0 00.69.286.986.986 0 00.69-.285.98.98 0 000-1.38.98.98 0 00-.69-.287z" fill="#fff"/></svg>