<svg width="24" height="24" fill="none" xmlns="http://www.w3.org/2000/svg"><path fill-rule="evenodd" clip-rule="evenodd" d="M13.823 1.43A1.333 1.333 0 0 0 12 1.918L9.506 6.24l1.155.667 2.495-4.322 6.42 3.706-4.99 8.644-3.21-1.853-.667 1.154 3.21 1.854c.638.368 1.453.15 1.821-.488l4.991-8.644a1.333 1.333 0 0 0-.488-1.821l-6.42-3.707Zm-3.758 6.51a1.333 1.333 0 0 0-1.822.487l-4.991 8.645a1.333 1.333 0 0 0 .488 1.822l6.42 3.706c.638.369 1.453.15 1.821-.488l2.496-4.322-1.155-.667-2.495 4.323-6.42-3.707 4.99-8.645 3.21 1.853.668-1.154-3.21-1.854Z" fill="#F7F7F7"/></svg>