<svg width="60" height="25" fill="none" xmlns="http://www.w3.org/2000/svg"><rect x=".5" y=".5" width="59" height="24" rx=".5" stroke="#595857"/><path fill-rule="evenodd" clip-rule="evenodd" d="M25.19 6.078l-.928.78a1.5 1.5 0 00-.185 2.113l1.921 2.29a1.5 1.5 0 001.867.353l-.748-.892 1.383-1.16.748.892a1.5 1.5 0 00-.024-1.9l-1.92-2.29a1.5 1.5 0 00-2.113-.186zm5.031 5.536a3 3 0 00.152-4.024L28.452 5.3a2.999 2.999 0 00-4.225-.37l-.93.779a3 3 0 00-.369 4.226l1.921 2.29a2.999 2.999 0 003.99.55l1.183 1.41a3 3 0 00-.151 4.023l1.92 2.29a2.999 2.999 0 004.226.37l.929-.779a3 3 0 00.37-4.226l-1.921-2.29a2.999 2.999 0 00-3.99-.55l-1.184-1.41zm.774 3.731l.746.89 1.383-1.16-.746-.89a1.5 1.5 0 011.868.351l1.92 2.29a1.5 1.5 0 01-.184 2.114l-.929.78a1.5 1.5 0 01-2.112-.186l-1.922-2.29a1.5 1.5 0 01-.024-1.899z" fill="#8F8F8F"/></svg>