<svg viewBox="0 0 22 22" fill="#000" xmlns="http://www.w3.org/2000/svg">
  <path fill-rule="evenodd" clip-rule="evenodd" d="M4.75 11C4.75 9.75736 3.74264 8.75 2.5 8.75C1.25736 8.75 0.25 9.75736 0.25 11C0.25 12.2426 1.25736 13.25 2.5 13.25C3.74264 13.25 4.75 12.2426 4.75 11ZM21.75 11C21.75 9.75736 20.7426 8.75 19.5 8.75C18.2574 8.75 17.25 9.75736 17.25 11C17.25 12.2426 18.2574 13.25 19.5 13.25C20.7426 13.25 21.75 12.2426 21.75 11ZM11 8.75C12.2426 8.75 13.25 9.75736 13.25 11C13.25 12.2426 12.2426 13.25 11 13.25C9.75736 13.25 8.75 12.2426 8.75 11C8.75 9.75736 9.75736 8.75 11 8.75Z" />
</svg>
