<svg viewBox="0 0 17 17" fill="#F7F7F7" xmlns="http://www.w3.org/2000/svg">
  <path fill-rule="evenodd" clip-rule="evenodd" d="M3 9C3 8.17157 2.32843 7.5 1.5 7.5C0.671573 7.5 -1.01779e-07 8.17157 -6.55671e-08 9C-2.93554e-08 9.82843 0.671573 10.5 1.5 10.5C2.32843 10.5 3 9.82843 3 9ZM17 9C17 8.17157 16.3284 7.5 15.5 7.5C14.6716 7.5 14 8.17157 14 9C14 9.82843 14.6716 10.5 15.5 10.5C16.3284 10.5 17 9.82843 17 9ZM8.5 7.5C9.32843 7.5 10 8.17157 10 9C10 9.82843 9.32843 10.5 8.5 10.5C7.67157 10.5 7 9.82843 7 9C7 8.17157 7.67157 7.5 8.5 7.5Z" />
</svg>
