<svg width="20" height="20" fill="none" fill="#F7F7F7" xmlns="http://www.w3.org/2000/svg">
  <path fill-rule="evenodd" clip-rule="evenodd"
    d="M14.75 2.25H14v7.5a3.75 3.75 0 101.493 2.763h.007V3.75h.102c.341.13.849.425 1.18.88.322.443.53 1.101.077 2.118l1.371.609c.666-1.499.407-2.727-.236-3.61-.602-.828-1.49-1.289-2.04-1.462l-.11-.035H14.75zM14 12.75a2.25 2.25 0 11-4.5 0 2.25 2.25 0 014.5 0z" />
  <path fill-rule="evenodd" clip-rule="evenodd"
    d="M12 7.506a5.329 5.329 0 00-1.855.244H3v-1.5h9v1.256zM6.717 14.25c.162.542.408 1.047.724 1.5H3v-1.5h3.717zm.415-4c-.25.463-.434.967-.537 1.5H3v-1.5h4.132z" />
</svg>