<svg width="30" height="30" fill="none" xmlns="http://www.w3.org/2000/svg"><mask id="a" fill="#fff"><path fill-rule="evenodd" clip-rule="evenodd" d="M14.99 22.458c-6.08 0-11.01-7.34-11.01-7.34s4.93-7.34 11.01-7.34S26 15.118 26 15.118s-4.93 7.34-11.01 7.34zm-6.43-5.141a21.965 21.965 0 01-2.069-2.199A21.976 21.976 0 018.56 12.92c1.885-1.736 4.16-3.14 6.43-3.14 2.27 0 4.545 1.404 6.43 3.14.855.787 1.561 1.58 2.07 2.2a21.962 21.962 0 01-2.07 2.198c-1.885 1.736-4.16 3.14-6.43 3.14-2.27 0-4.545-1.404-6.43-3.14zM5.64 14c-.001 0-.001 0 0 0zm9.35 3.41a2.294 2.294 0 100-4.587 2.294 2.294 0 000 4.588z"/></mask><path fill-rule="evenodd" clip-rule="evenodd" d="M14.99 22.458c-6.08 0-11.01-7.34-11.01-7.34s4.93-7.34 11.01-7.34S26 15.118 26 15.118s-4.93 7.34-11.01 7.34zm-6.43-5.141a21.965 21.965 0 01-2.069-2.199A21.976 21.976 0 018.56 12.92c1.885-1.736 4.16-3.14 6.43-3.14 2.27 0 4.545 1.404 6.43 3.14.855.787 1.561 1.58 2.07 2.2a21.962 21.962 0 01-2.07 2.198c-1.885 1.736-4.16 3.14-6.43 3.14-2.27 0-4.545-1.404-6.43-3.14zM5.64 14c-.001 0-.001 0 0 0zm9.35 3.41a2.294 2.294 0 100-4.587 2.294 2.294 0 000 4.588z" fill="#595857"/><path d="M3.98 15.118l-1.66-1.115-.749 1.115.75 1.115 1.66-1.115zm22.02 0l1.66 1.115.75-1.115-.75-1.115L26 15.118zm-19.509 0L4.945 13.85l-1.041 1.268 1.04 1.269 1.547-1.269zm2.069 2.199l-1.355 1.471 1.355-1.471zm0-4.398l1.355 1.471-1.355-1.47zm12.86 0l-1.355 1.471 1.355-1.47zm2.07 2.2l1.545 1.268 1.041-1.269-1.04-1.268-1.547 1.268zm-2.07 2.198l-1.355-1.471 1.355 1.47zM5.64 14l-1.655 1.124 3.31-2.247-1.656 1.123zm0 0L3.98 15.12l.004.005 1.654-1.124zm-1.66 1.117a320.604 320.604 0 00-1.66 1.116l.002.001a.574.574 0 00.023.034 11.108 11.108 0 00.244.345 26.04 26.04 0 003.26 3.646c2.101 1.933 5.33 4.198 9.141 4.198v-4c-2.27 0-4.545-1.405-6.43-3.141a22.041 22.041 0 01-2.741-3.063 11.693 11.693 0 01-.143-.2c-.015-.02-.025-.036-.031-.045l-.006-.008.001.001-1.66 1.116zm11.01-9.34c-3.81 0-7.04 2.265-9.14 4.2a26.03 26.03 0 00-3.26 3.645 15.566 15.566 0 00-.261.367l-.005.008-.002.003-.001.001 1.66 1.116 1.66 1.116H5.64v.002c-.001 0-.001 0 0 0a.93.93 0 01.036-.054l.143-.2A22.022 22.022 0 018.56 12.92c1.885-1.736 4.16-3.14 6.43-3.14v-4zM26 15.118l1.66-1.116-.001-.001-.002-.003-.005-.008a26.028 26.028 0 00-3.521-4.013c-2.1-1.934-5.33-4.199-9.14-4.199v4c2.269 0 4.544 1.405 6.43 3.141a22.007 22.007 0 012.74 3.064 12.484 12.484 0 01.174.244l.006.008v-.001L26 15.118zm-11.01 9.34c3.81 0 7.04-2.265 9.14-4.199a26.037 26.037 0 003.261-3.646 16.495 16.495 0 00.245-.344l.016-.023.005-.008.002-.003c0-.001.001-.002-1.66-1.117-1.66-1.115-1.66-1.115-1.659-1.116l.001-.001-.006.008-.031.046-.143.199a22.027 22.027 0 01-2.741 3.063c-1.885 1.736-4.16 3.14-6.43 3.14v4zM4.945 16.387a23.977 23.977 0 002.26 2.401l2.71-2.942a19.986 19.986 0 01-1.878-1.996l-3.092 2.537zm2.26-4.939c-.939.865-1.709 1.73-2.26 2.402l3.092 2.537a19.975 19.975 0 011.878-1.997l-2.71-2.942zm7.785-3.67c-3.04 0-5.792 1.835-7.785 3.67l2.71 2.942c1.777-1.636 3.576-2.612 5.075-2.612v-4zm7.785 3.67c-1.993-1.835-4.745-3.67-7.785-3.67v4c1.5 0 3.298.976 5.075 2.612l2.71-2.942zm2.26 2.402a23.97 23.97 0 00-2.26-2.402l-2.71 2.942c.77.71 1.413 1.43 1.878 1.997l3.092-2.537zm-2.26 4.938a23.97 23.97 0 002.26-2.401l-3.092-2.537a19.986 19.986 0 01-1.878 1.996l2.71 2.942zm-7.785 3.67c3.04 0 5.792-1.835 7.785-3.67l-2.71-2.942c-1.777 1.636-3.575 2.612-5.075 2.612v4zm-7.785-3.67c1.993 1.835 4.745 3.67 7.785 3.67v-4c-1.5 0-3.298-.976-5.075-2.612l-2.71 2.942zm.09-5.91a.034.034 0 00.002.004v.001l.004.004.007.01.026.043c-.432 2.611-3.206 2.371-3.321 2.225l-.02-.028-.004-.006-.003-.005-.002-.002v-.001l-.002-.002v-.001l3.315-2.238-.001-.002-.001-.001-.001-.002-.002-.003-.003-.004-.004-.006-.02-.028c-.115-.146-2.889-.386-3.321 2.225l.027.042.006.01.003.005h.001v.002h.001l.002.004 3.31-2.246zm-3.31 2.247l3.308-2.248-3.308 2.248zm11.299-.007a.294.294 0 01-.294.294v4a4.294 4.294 0 004.294-4.294h-4zm-.294-.294c.162 0 .294.132.294.294h4a4.294 4.294 0 00-4.294-4.294v4zm-.293.294c0-.162.131-.294.293-.294v-4a4.294 4.294 0 00-4.293 4.294h4zm.293.294a.294.294 0 01-.293-.294h-4a4.294 4.294 0 004.293 4.294v-4z" fill="#595857" mask="url(#a)"/></svg>