<svg width="30" height="30" fill="none" xmlns="http://www.w3.org/2000/svg"><path fill-rule="evenodd" clip-rule="evenodd" d="M23.9 14.537l.814.581.813.582v.001l-.002.002-.003.005-.013.017-.045.062a20.903 20.903 0 01-.79.984c-.363.426-.835.95-1.399 1.505l1.806 1.516a1 1 0 11-1.285 1.532l-2.023-1.698c-.87.708-1.885 1.406-3.002 1.941l1.214 2.103a1 1 0 01-1.732 1l-1.377-2.384-.008-.015a8.243 8.243 0 01-2.063.27 8.118 8.118 0 01-1.737-.193l-1.34 2.322a1 1 0 01-1.733-1l1.136-1.968c-1.35-.602-2.557-1.452-3.556-2.294a1.003 1.003 0 01-.142.146l-2.109 1.77a1 1 0 11-1.285-1.532l2.073-1.74a23.991 23.991 0 01-1.798-2.046 14.098 14.098 0 01-.211-.28l-.013-.018-.004-.005-.001-.002.813-.583c.814-.58.813-.58.813-.581l.001.001.008.01a7.67 7.67 0 00.176.235A21.41 21.41 0 008.52 17.58c1.763 1.563 4.004 2.96 6.286 2.96s4.523-1.398 6.287-2.96a21.431 21.431 0 002.623-2.798 11.463 11.463 0 00.177-.235l.007-.01.002-.001zm-18.189 0z" fill="#595857"/></svg>