<svg width="20" height="20" fill="#595857" xmlns="http://www.w3.org/2000/svg"><path fill-rule="evenodd" clip-rule="evenodd" d="M4.571 10.542a1.05 1.05 0 00-.304.655l-.347 4.166a1.05 1.05 0 001.134 1.134l4.165-.348c.248-.02.48-.128.656-.304l5.18-5.18a.708.708 0 00.013-.013l.012-.012 2.463-2.463a1.25 1.25 0 000-1.768l-3.536-3.535a1.25 1.25 0 00-1.768 0l-7.668 7.668zm9.966-1.481l1.768-1.768-3.182-3.182-1.768 1.768 3.182 3.182zM10.295 6.94l-4.547 4.546-.289 3.472 3.471-.29 4.547-4.546-3.182-3.182z"/></svg>