<svg viewBox="0 0 12 14" fill="#FF3B30" xmlns="http://www.w3.org/2000/svg"><path fill-rule="evenodd" clip-rule="evenodd" d="M11.695 2.913L6.354.053a.45.45 0 00-.426 0L.73 2.917a.45.45 0 00-.231.392v3.145a7.849 7.849 0 004.72 7.201l.714.31a.449.449 0 00.35 0l.825-.34a7.836 7.836 0 004.823-7.245v-3.07a.447.447 0 00-.237-.396zm-.656 3.466A6.946 6.946 0 016.764 12.8l-.647.27-.54-.233a6.957 6.957 0 01-4.184-6.384V3.575L6.147.957l4.892 2.618v2.804zM3.633 8.645l1.658-1.658L3.63 5.324l.92-.92L6.21 6.068l1.665-1.665.92.92L7.13 6.987l1.66 1.66-.92.92-1.66-1.66-1.658 1.658-.92-.92z" /></svg>