<svg width="30" height="30" fill="none" xmlns="http://www.w3.org/2000/svg"><mask id="a" fill="#fff"><path fill-rule="evenodd" clip-rule="evenodd" d="M14.99 22.458c-6.08 0-11.01-7.34-11.01-7.34s4.93-7.34 11.01-7.34S26 15.118 26 15.118s-4.93 7.34-11.01 7.34zm-6.43-5.141a21.975 21.975 0 01-2.069-2.199 21.964 21.964 0 012.07-2.199c1.884-1.736 4.16-3.14 6.43-3.14 2.27 0 4.544 1.405 6.43 3.14.854.787 1.56 1.58 2.068 2.2a21.973 21.973 0 01-2.069 2.198c-1.885 1.736-4.16 3.141-6.43 3.141-2.27 0-4.545-1.405-6.43-3.141zm-2.92-3.316s-.001 0 0 0zm9.35 3.41a2.294 2.294 0 100-4.586 2.294 2.294 0 000 4.587z"/></mask><path fill-rule="evenodd" clip-rule="evenodd" d="M14.99 22.458c-6.08 0-11.01-7.34-11.01-7.34s4.93-7.34 11.01-7.34S26 15.118 26 15.118s-4.93 7.34-11.01 7.34zm-6.43-5.141a21.975 21.975 0 01-2.069-2.199 21.964 21.964 0 012.07-2.199c1.884-1.736 4.16-3.14 6.43-3.14 2.27 0 4.544 1.405 6.43 3.14.854.787 1.56 1.58 2.068 2.2a21.973 21.973 0 01-2.069 2.198c-1.885 1.736-4.16 3.141-6.43 3.141-2.27 0-4.545-1.405-6.43-3.141zm-2.92-3.316s-.001 0 0 0zm9.35 3.41a2.294 2.294 0 100-4.586 2.294 2.294 0 000 4.587z" fill="#F7F7F7"/><path d="M3.98 15.118l-1.66-1.115-.749 1.115.75 1.115 1.66-1.115zm22.02 0l1.66 1.115.75-1.115-.75-1.115L26 15.118zm-19.509 0L4.945 13.85l-1.04 1.268 1.04 1.269 1.546-1.269zm2.07 2.199l-1.356 1.471 1.355-1.471zm0-4.398l1.354 1.472-1.355-1.472zm12.86 0l-1.355 1.472 1.354-1.472zm2.068 2.2l1.546 1.268 1.041-1.269-1.04-1.268-1.547 1.268zm-2.069 2.198l-1.355-1.471 1.355 1.471zM5.64 14.001l-1.655 1.125 3.31-2.248-1.656 1.123zm0 0L3.981 15.12l.003.005 1.654-1.124zm-1.66 1.117a320.586 320.586 0 00-1.66 1.116l.002.001c0 .001 0 .002.002.003l.005.008a2.841 2.841 0 00.07.1c.044.065.108.155.19.268a26.03 26.03 0 003.26 3.646c2.101 1.933 5.33 4.198 9.141 4.198v-4c-2.27 0-4.545-1.405-6.43-3.141a22.03 22.03 0 01-2.741-3.063 12.214 12.214 0 01-.18-.252h.001l-1.66 1.116zm11.01-9.34c-3.81 0-7.04 2.265-9.14 4.2a26.03 26.03 0 00-3.26 3.645 16.105 16.105 0 00-.245.344l-.016.023a.486.486 0 00-.005.008l-.002.003-.001.001 1.66 1.116 1.66 1.116H5.64v.002c-.001 0 0 0 0 0l.005-.009.031-.045.143-.2A22.04 22.04 0 018.56 12.92c1.885-1.736 4.16-3.14 6.43-3.14v-4zM26 15.118l1.66-1.116-.001-.001-.002-.003-.005-.008-.016-.023a23.316 23.316 0 00-.947-1.254 26.026 26.026 0 00-2.559-2.736c-2.1-1.934-5.329-4.199-9.14-4.199v4c2.27 0 4.545 1.405 6.43 3.141a22.038 22.038 0 012.741 3.064c.065.088.113.156.143.199l.032.045.005.008c0 .001 0 .001 0 0-.001-.001-.001-.002 1.659-1.117zm-11.01 9.34c3.811 0 7.04-2.265 9.14-4.199a26.027 26.027 0 003.261-3.645 14.998 14.998 0 00.26-.368c.003-.003.005-.005.006-.008a.047.047 0 01.003-.004L26 15.118l-1.66-1.116.001-.001-.005.008a19.442 19.442 0 01-.755.998 22.028 22.028 0 01-2.16 2.31c-1.886 1.736-4.16 3.141-6.43 3.141v4zM4.945 16.387a23.978 23.978 0 002.26 2.401l2.71-2.942a19.975 19.975 0 01-1.878-1.996l-3.092 2.537zm2.26-4.939c-.939.865-1.709 1.73-2.26 2.402l3.092 2.537a19.976 19.976 0 011.878-1.996l-2.71-2.943zm7.785-3.67c-3.04 0-5.792 1.835-7.785 3.67l2.71 2.943c1.777-1.637 3.576-2.613 5.075-2.613v-4zm7.785 3.67c-1.992-1.835-4.745-3.67-7.785-3.67v4c1.5 0 3.298.976 5.075 2.613l2.71-2.943zm2.26 2.402a23.98 23.98 0 00-2.26-2.402l-2.71 2.943c.77.709 1.413 1.429 1.878 1.996l3.092-2.537zm-2.26 4.938a23.97 23.97 0 002.26-2.401l-3.092-2.537a19.961 19.961 0 01-1.878 1.996l2.71 2.942zm-7.785 3.67c3.04 0 5.792-1.834 7.785-3.67l-2.71-2.942c-1.777 1.637-3.575 2.612-5.075 2.612v4zm-7.785-3.67c1.993 1.835 4.745 3.67 7.785 3.67v-4c-1.5 0-3.298-.975-5.075-2.612l-2.71 2.942zm.09-5.91v.002h.001l.001.002.001.001.003.005a.617.617 0 01.034.052c-.433 2.611-3.207 2.371-3.322 2.225l-.02-.028c0-.002-.003-.005-.004-.006l-.003-.004a.145.145 0 01-.002-.003v-.001l-.002-.002v-.001l3.315-2.238v-.002l-.002-.001-.001-.002-.002-.002-.003-.005-.004-.006-.02-.028c-.115-.146-2.889-.386-3.321 2.226.01.016.023.037.027.041l.007.01a.217.217 0 01.002.005l.001.001.001.001.002.004 3.31-2.246zm-3.31 2.247l3.308-2.248-3.308 2.248zm11.299-.007a.294.294 0 01-.294.294v4a4.294 4.294 0 004.294-4.294h-4zm-.294-.293c.162 0 .294.131.294.293h4a4.294 4.294 0 00-4.294-4.293v4zm-.293.293c0-.162.131-.293.293-.293v-4a4.294 4.294 0 00-4.293 4.293h4zm.293.294a.294.294 0 01-.293-.294h-4a4.294 4.294 0 004.293 4.294v-4z" fill="#F7F7F7" mask="url(#a)"/></svg>