<svg width="65" height="75" fill="none" xmlns="http://www.w3.org/2000/svg"><path fill-rule="evenodd" clip-rule="evenodd" d="M64.5 4V.615l-3.235.996-39 12-1.765.543v38.345A12.445 12.445 0 0013 50C6.096 50 .5 55.596.5 62.5S6.096 75 13 75s12.5-5.596 12.5-12.5c0-.167-.003-.334-.01-.5h.01V29.847l34-10.462v22.114A12.445 12.445 0 0052 39c-6.904 0-12.5 5.596-12.5 12.5S45.096 64 52 64s12.5-5.596 12.5-12.5V4zm-5 4v-.615l-34 10.462V24.615l34-10.461V8zM13 70a7.5 7.5 0 100-15 7.5 7.5 0 000 15zm46.5-18.5a7.5 7.5 0 11-15 0 7.5 7.5 0 0115 0z" fill="#21201F"/></svg>