<svg width="24" height="24" viewBox="0 0 24 24" fill="#F7F7F7" xmlns="http://www.w3.org/2000/svg">
  <path fill-rule="evenodd" clip-rule="evenodd"
    d="M16.477 8h1.804l.417-1.486h2.208L21.323 8h1.805l-2.273-6.764H18.75L16.477 8zm3.28-5.273h.09l.712 2.55h-1.514l.713-2.55zM1.5 4.8a.9.9 0 01.9-.9h12a.9.9 0 110 1.8h-12a.9.9 0 01-.9-.9zm20.962 16.4h-5.334v-1.092l3.174-4.2v-.089H17.18v-1.383h5.184v1.092l-3.173 4.2v.09h3.271V21.2zM1.5 12a.9.9 0 01.9-.9h8.4a.9.9 0 110 1.8H2.4a.9.9 0 01-.9-.9zm.9 6.3a.9.9 0 100 1.8h12a.9.9 0 000-1.8h-12z" />
</svg>