<svg viewBox="0 0 24 24" fill="#8F8F8F" xmlns="http://www.w3.org/2000/svg">
  <path fill-rule="evenodd" clip-rule="evenodd" d="M7.87786 5C7.32558 5 6.87786 5.44772 6.87786 6V14.6062L4.70711 12.4354C4.31658 12.0449 3.68342 12.0449 3.29289 12.4354C2.90237 12.8259 2.90237 13.4591 3.29289 13.8496L7.18345 17.7402C7.37645 17.9332 7.62872 18.0308 7.88167 18.033C8.14876 18.042 8.41876 17.9446 8.62263 17.7407L12.5134 13.8499C12.904 13.4594 12.904 12.8262 12.5134 12.4357C12.1229 12.0452 11.4897 12.0452 11.0992 12.4357L8.87786 14.657V6C8.87786 5.44772 8.43015 5 7.87786 5ZM13.5858 5C13.0335 5 12.5858 5.44772 12.5858 6C12.5858 6.55228 13.0335 7 13.5858 7H20.5858C21.1381 7 21.5858 6.55228 21.5858 6C21.5858 5.44772 21.1381 5 20.5858 5H13.5858ZM15.5858 11C15.0335 11 14.5858 11.4477 14.5858 12C14.5858 12.5523 15.0335 13 15.5858 13H20.5858C21.1381 13 21.5858 12.5523 21.5858 12C21.5858 11.4477 21.1381 11 20.5858 11H15.5858ZM16.5858 18C16.5858 17.4477 17.0335 17 17.5858 17H20.5858C21.1381 17 21.5858 17.4477 21.5858 18C21.5858 18.5523 21.1381 19 20.5858 19H17.5858C17.0335 19 16.5858 18.5523 16.5858 18Z" />
</svg>
