<svg width="25" height="25" fill="none" xmlns="http://www.w3.org/2000/svg"><path d="M12.5 25C19.404 25 25 19.404 25 12.5S19.404 0 12.5 0 0 5.596 0 12.5 5.596 25 12.5 25z" fill="#272625" fill-opacity=".7"/><path d="M16.553 17.5c-.17 0-.287-.059-.446-.156-1.526-.923-3.43-1.408-5.449-1.408-1.127 0-2.261.145-3.322.365-.172.037-.389.104-.519.104a.657.657 0 01-.666-.662c0-.442.255-.663.573-.723 1.3-.297 2.596-.466 3.941-.466 2.304 0 4.358.529 6.125 1.588.263.153.417.31.417.7 0 .38-.308.658-.654.658zm1.147-2.786c-.228 0-.372-.093-.528-.183-1.713-1.016-4.087-1.691-6.687-1.691a13.32 13.32 0 00-3.437.44c-.205.057-.32.118-.512.118a.825.825 0 01-.823-.826c0-.447.218-.755.655-.878 1.184-.326 2.393-.576 4.152-.576 2.757 0 5.424.686 7.52 1.94.352.201.481.458.481.832a.82.82 0 01-.82.824zm1.307-3.24c-.215 0-.342-.053-.543-.163-1.905-1.143-4.864-1.772-7.724-1.772-1.429 0-2.879.146-4.207.506-.153.038-.346.115-.54.115A.987.987 0 015 9.154c0-.572.355-.893.737-1.006 1.501-.442 3.177-.648 4.998-.648 3.093 0 6.346.636 8.723 2.03.32.183.542.456.542.957a.982.982 0 01-.993.986z" fill="#F7F7F7"/></svg>