<svg width="90" height="60" viewBox="0 0 90 60" fill="#595857" xmlns="http://www.w3.org/2000/svg"><path fill-rule="evenodd" clip-rule="evenodd" d="M50.492 28.412c7.792-7.273 10.997-17.62 9.485-27.42l2.47-.382c1.634 10.583-1.827 21.769-10.25 29.63l-1.705-1.828zM42.842 4.95c4.771 4.77 4.771 12.505 0 17.276l1.768 1.768c5.747-5.747 5.747-15.065 0-20.812L42.843 4.95zm5.438 43.138l6.709-2.516a.5.5 0 00.178-.822L36.362 25.948a.5.5 0 00-.822.178l-2.515 6.708c.096.02.19.051.283.095l3.877 1.843a4.25 4.25 0 012.014 2.014l1.385 2.914c.173.363.466.656.83.829l2.913 1.385a4.25 4.25 0 012.014 2.013l1.843 3.877c.044.093.075.188.095.285zm-2.313.867a1.272 1.272 0 01-.04-.078L44.084 45a1.75 1.75 0 00-.83-.83l-2.913-1.385a4.25 4.25 0 01-2.014-2.013l-1.385-2.914a1.75 1.75 0 00-.829-.829l-3.877-1.843a1.259 1.259 0 01-.078-.04l-2.1 5.602.78.371a4.25 4.25 0 012.014 2.014l1.385 2.914c.173.363.466.656.83.829l2.913 1.385a4.249 4.249 0 012.013 2.014l.372.78 5.602-2.1zm-7.951 2.982l-.28-.59a1.75 1.75 0 00-.83-.828l-2.913-1.385a4.25 4.25 0 01-2.014-2.014l-1.385-2.914a1.75 1.75 0 00-.83-.829l-.587-.28-4.918 13.113a.5.5 0 00.644.644l13.113-4.917zm17.85-4.024L25.781 59.196c-2.412.904-4.767-1.45-3.862-3.862L33.2 25.248c.766-2.043 3.388-2.61 4.93-1.068l18.804 18.803c1.543 1.543.975 4.165-1.068 4.93zm19.84-10.997c-4.77-4.77-12.505-4.77-17.276 0l-1.768-1.768c5.747-5.747 15.065-5.747 20.812 0l-1.767 1.768zM54.443 18.489l2.264-2.264-2.121-2.121-2.264 2.264 2.12 2.121zm17.526 32.749l-2.265 2.264-2.121-2.121 2.264-2.265 2.121 2.122zm7.61-23.77l2.265-2.265-2.122-2.12-2.264 2.263 2.121 2.122zM39.65 8.145l-2.264 2.265-2.121-2.122 2.264-2.264 2.121 2.121z"/></svg>