<svg width="25" height="25" fill="none" xmlns="http://www.w3.org/2000/svg"><mask id="a" maskUnits="userSpaceOnUse" x="0" y="0" width="25" height="25"><path d="M12.5 25C19.404 25 25 19.404 25 12.5S19.404 0 12.5 0 0 5.596 0 12.5 5.596 25 12.5 25z" fill="#FFF"/></mask><g mask="url(#a)"><path d="M12.5 25C19.404 25 25 19.404 25 12.5S19.404 0 12.5 0 0 5.596 0 12.5 5.596 25 12.5 25z" fill="#272625" fill-opacity=".7"/><path d="M18.207 9.744c.006.123.008.247.008.37 0 3.792-2.886 8.164-8.163 8.164a8.122 8.122 0 01-4.398-1.289 5.757 5.757 0 004.248-1.188 2.872 2.872 0 01-2.68-1.993 2.853 2.853 0 001.296-.05 2.87 2.87 0 01-2.302-2.812v-.036a2.85 2.85 0 001.3.358 2.867 2.867 0 01-.889-3.83 8.146 8.146 0 005.914 2.998 2.87 2.87 0 014.89-2.617 5.755 5.755 0 001.821-.696 2.88 2.88 0 01-1.261 1.587 5.721 5.721 0 001.647-.452 5.83 5.83 0 01-1.43 1.486z" fill="#FFF"/></g></svg>