<svg width="20" height="20" fill="#FF3B30" xmlns="http://www.w3.org/2000/svg"><path fill-rule="evenodd" clip-rule="evenodd" d="M6 5.25a2.5 2.5 0 115 0 2.5 2.5 0 01-5 0zm2.5-4a4 4 0 100 8 4 4 0 000-8zM2 17c0-3.427 2.886-6.25 6.502-6.25.859 0 1.677.16 2.426.45.325.125.637.276.934.448l.754-1.296a8.085 8.085 0 00-1.147-.551 8.21 8.21 0 00-2.967-.551C4.108 9.25.5 12.695.5 17H2zM15.24 14.357l-2.298 2.298 1.06 1.06 2.299-2.297 2.298 2.298 1.06-1.06-2.298-2.299 2.299-2.298-1.061-1.06-2.298 2.297-2.298-2.298-1.061 1.061 2.298 2.298z"/></svg>