<svg width="20" height="20" fill="#F7F7F7" xmlns="http://www.w3.org/2000/svg">
  <path fill-rule="evenodd" clip-rule="evenodd"
    d="M9.973 5.4a1.35 1.35 0 100 2.7 1.35 1.35 0 000-2.7zm1.73 3.489A2.75 2.75 0 108.245 4.61 2.75 2.75 0 0011.7 8.89zm1.916 2.346A5.973 5.973 0 009.972 10c-1.371 0-2.636.46-3.646 1.235a3.966 3.966 0 00-.436-.13 2.004 2.004 0 001.083-1.774 1.998 1.998 0 00-2-1.997c-1.105 0-2 .894-2 1.997a1.992 1.992 0 001.083 1.775A4.008 4.008 0 001.224 13.6 3.991 3.991 0 00.973 15h3.082a6.04 6.04 0 00-.083 1h12c0-.34-.028-.675-.083-1H18.973c0-.492-.09-.964-.252-1.4a4.008 4.008 0 00-2.823-2.492 2.01 2.01 0 001.075-1.774 2 2 0 10-2.926 1.774c-.146.034-.289.077-.428.127zm1.159 1.172c.275.367.509.767.695 1.193H17.164a2.598 2.598 0 00-2.386-1.193zM4.47 13.6c.186-.426.42-.826.695-1.193A2.598 2.598 0 002.781 13.6H4.471zm9.884 1a4.602 4.602 0 00-8.766 0H14.355zM4.973 8.734c-.334 0-.6.27-.6.597a.594.594 0 00.6.597c.144 0 .274-.05.377-.133a.592.592 0 00.223-.464.598.598 0 00-.6-.597zm10 0a.6.6 0 100 1.2.6.6 0 000-1.2z" />
</svg>