<svg width="12" height="14" fill="none" xmlns="http://www.w3.org/2000/svg"><path fill-rule="evenodd" clip-rule="evenodd" d="M12 3.308V6.38c.005 3.168-1.993 6.026-5.062 7.244l-.868.341a.493.493 0 01-.367 0l-.748-.31C1.945 12.408-.001 9.58 0 6.454V3.307c0-.163.093-.313.242-.392L5.697.054a.493.493 0 01.448 0l5.607 2.859a.445.445 0 01.248.395zm-5.43 9.385H6.57l-.677.267-.554-.23C2.68 11.63.998 9.154 1 6.454V3.647l4.924-2.584L11 3.652V6.381c.004 2.733-1.721 5.236-4.43 6.312zM9.56 5.69L5.405 9.844l-.849-.849.018-.017-1.911-1.911.848-.849L5.422 8.13 8.71 4.841l.849.849z" fill="#4CC2A5"/></svg>