<svg width="25" height="25" fill="none" xmlns="http://www.w3.org/2000/svg"><path d="M12.5 25C19.404 25 25 19.404 25 12.5S19.404 0 12.5 0 0 5.596 0 12.5 5.596 25 12.5 25z" fill="#272625" fill-opacity=".7"/><path fill-rule="evenodd" clip-rule="evenodd" d="M12.593 6H12.5a6.5 6.5 0 10.093 0zm.016.783l.053.002c.257.035.68.478 1.043 1.405a9.38 9.38 0 01.482 1.778H11.07a9.18 9.18 0 01.484-1.778c.37-.941.8-1.383 1.054-1.407zM10.28 9.968c.214-1.285.585-2.359 1.051-3.064a5.724 5.724 0 00-3.956 3.064h2.905zm-3.288 1h3.159a16.262 16.262 0 000 3.062H6.99a5.716 5.716 0 01.002-3.062zm3.943 0h3.387a15.763 15.763 0 01.001 3.063h-3.387a15.74 15.74 0 01-.001-3.063zm4.172 0a16.261 16.261 0 010 3.062h2.901a5.717 5.717 0 000-3.063h-2.9zm2.518-1a5.717 5.717 0 00-3.652-2.992c.445.705.799 1.75 1.005 2.992h2.647zm-6.553 5.062h3.116a9.182 9.182 0 01-.484 1.78c-.364.923-.786 1.37-1.043 1.405l-.054.002c-.255-.024-.684-.467-1.053-1.406a9.435 9.435 0 01-.482-1.78zm-.792 0H7.373a5.712 5.712 0 003.96 3.067c-.467-.705-.839-1.78-1.052-3.067zm7.346 0H14.98c-.206 1.243-.56 2.289-1.005 2.994a5.717 5.717 0 003.653-2.994z" fill="#fff"/></svg>