<svg width="20" height="20" fill="none" xmlns="http://www.w3.org/2000/svg"><path d="M10 20c5.523 0 10-4.477 10-10S15.523 0 10 0 0 4.477 0 10s4.477 10 10 10z" fill="#61605F"/><path fill-rule="evenodd" clip-rule="evenodd" d="M10.093 3.5H10a6.5 6.5 0 10.093 0zm.016.783l.053.002c.257.035.68.478 1.043 1.405a9.38 9.38 0 01.482 1.778H8.57a9.18 9.18 0 01.484-1.778c.37-.941.8-1.383 1.054-1.407zM7.78 7.468c.214-1.285.584-2.359 1.051-3.064a5.724 5.724 0 00-3.956 3.064h2.905zm-3.288 1h3.159a16.273 16.273 0 000 3.062H4.49a5.716 5.716 0 01.002-3.062zm3.943 0h3.387a15.763 15.763 0 01.001 3.062H8.437a15.763 15.763 0 01-.001-3.062zm4.172 0a16.26 16.26 0 010 3.062h2.901a5.717 5.717 0 000-3.062h-2.9zm2.518-1a5.717 5.717 0 00-3.652-2.992c.445.705.799 1.75 1.005 2.992h2.647zM8.574 12.53h3.115a9.182 9.182 0 01-.484 1.78c-.364.923-.786 1.37-1.043 1.405l-.054.002c-.255-.024-.684-.467-1.053-1.407a9.43 9.43 0 01-.481-1.78zm-.793 0H4.873a5.712 5.712 0 003.96 3.067c-.467-.705-.839-1.78-1.052-3.067zm7.346 0H12.48c-.206 1.243-.56 2.289-1.005 2.994a5.717 5.717 0 003.653-2.994z" fill="#fff"/></svg>