<svg width="101" height="100" fill="#21201F" viewBox="0 0 101 100" xmlns="http://www.w3.org/2000/svg"><path fill-rule="evenodd" clip-rule="evenodd" d="M63.5 28.5C63.5 38.165 55.665 46 46 46s-17.5-7.835-17.5-17.5S36.335 11 46 11s17.5 7.835 17.5 17.5zM51.538 50.313C61.287 47.846 68.5 39.015 68.5 28.5 68.5 16.074 58.426 6 46 6S23.5 16.074 23.5 28.5c0 10.642 7.388 19.558 17.315 21.9C21.864 53.086 6.926 69.014 4.768 89a46.572 46.572 0 00-.268 5h84c0-1.69-.091-3.359-.268-5H9.8c2.337-19.344 18.058-34 36.7-34 4.748 0 9.307.951 13.504 2.688a20.097 20.097 0 013.532-3.918 40.252 40.252 0 00-11.998-3.457z" fill="#21201F"/><path fill-rule="evenodd" clip-rule="evenodd" d="M84.5 69a8 8 0 11-16 0 8 8 0 0116 0zm1.723 8.63A12.968 12.968 0 0176.5 82c-7.18 0-13-5.82-13-13s5.82-13 13-13 13 5.82 13 13c0 1.516-.26 2.97-.736 4.323l9.114 5.262-2.5 4.33-9.155-5.286z" /></svg>