<svg width="101" height="100" fill="none" xmlns="http://www.w3.org/2000/svg"><path fill-rule="evenodd" clip-rule="evenodd" d="M50.503 23.854c-23.673 0-42.739 18.621-42.739 41.439h-5c0-25.716 21.443-46.439 47.739-46.439 26.295 0 47.738 20.723 47.738 46.439h-5c0-22.818-19.066-41.439-42.738-41.439zm-.004 32.986c-5.925 0-10.223 4.22-10.223 8.838h-5c0-7.905 7.094-13.838 15.223-13.838 8.13 0 15.223 5.932 15.223 13.838h-5c0-4.618-4.298-8.838-10.223-8.838zM1.021 80.549h98.958v-5H1.02v5z" fill="#21201F"/></svg>