<svg width="100" height="100" fill="none" xmlns="http://www.w3.org/2000/svg"><mask id="a" fill="#fff"><path d="M92 50a.982.982 0 0 1 .988 1A43 43 0 1 1 62.333 8.807c.53.158.816.723.646 1.249L54.295 36.78c-.17.526-.734.809-1.27.68a12.899 12.899 0 1 0 9.836 13.539c.043-.55.487-.999 1.039-.999H92z"/></mask><path d="M92 50a.982.982 0 0 1 .988 1A43 43 0 1 1 62.333 8.807c.53.158.816.723.646 1.249L54.295 36.78c-.17.526-.734.809-1.27.68a12.899 12.899 0 1 0 9.836 13.539c.043-.55.487-.999 1.039-.999H92z" stroke="#21201F" stroke-width="10" mask="url(#a)"/><mask id="b" fill="#fff"><path d="M74 10.627a.982.982 0 0 1 1.36-.356 42.999 42.999 0 0 1 20.288 31.241.982.982 0 0 1-.878 1.098l-27.946 2.937c-.55.058-1.037-.342-1.138-.885a12.9 12.9 0 0 0-5.39-8.3c-.456-.313-.622-.922-.346-1.4L74 10.627z"/></mask><path d="M74 10.627a.982.982 0 0 1 1.36-.356 42.999 42.999 0 0 1 20.288 31.241.982.982 0 0 1-.878 1.098l-27.946 2.937c-.55.058-1.037-.342-1.138-.885a12.9 12.9 0 0 0-5.39-8.3c-.456-.313-.622-.922-.346-1.4L74 10.627z" stroke="#21201F" stroke-width="10" mask="url(#b)"/></svg>