<svg width="100" height="100" fill="none" xmlns="http://www.w3.org/2000/svg"><path fill-rule="evenodd" clip-rule="evenodd" d="M76.5 16v-3.385l-3.235.996-39 12-1.765.543v38.345A12.445 12.445 0 0025 62c-6.904 0-12.5 5.596-12.5 12.5S18.096 87 25 87s12.5-5.596 12.5-12.5c0-.168-.003-.334-.01-.5h.01V41.847l34-10.462v22.114A12.445 12.445 0 0064 51c-6.904 0-12.5 5.596-12.5 12.5S57.096 76 64 76s12.5-5.596 12.5-12.5V16zm-5 4v-.615l-34 10.462V36.615l34-10.461V20zM25 82a7.5 7.5 0 100-15 7.5 7.5 0 000 15zm46.5-18.5a7.5 7.5 0 11-15 0 7.5 7.5 0 0115 0z" fill="#21201F"/></svg>