<svg width="24" height="24" fill="none" xmlns="http://www.w3.org/2000/svg"><path fill-rule="evenodd" clip-rule="evenodd" d="M2.5 8.5h19v-6h-19v6Zm19 1.5h-2.52c.013.081.02.165.02.25v5.5a1.5 1.5 0 0 1-.75 1.3v4.45h3.25V10ZM16 15.75a1.5 1.5 0 0 0 .75 1.3v4.45h-4v-4.45a1.5 1.5 0 0 0 .75-1.3v-5.5c0-.085-.007-.169-.02-.25h2.54c-.013.081-.02.165-.02.25v5.5Zm-4.75 1.3v4.45h-4v-4.45a1.5 1.5 0 0 0 .75-1.3v-5.5a1.51 1.51 0 0 0-.02-.25h2.54c-.013.081-.02.165-.02.25v5.5a1.5 1.5 0 0 0 .75 1.3ZM5.02 10a1.51 1.51 0 0 0-.02.25v5.5a1.5 1.5 0 0 0 .75 1.3v4.45H2.5V10h2.52ZM1.006 1.898A1 1 0 0 1 2 1h20a1 1 0 0 1 1 1v20a1 1 0 0 1-1 1H2a1 1 0 0 1-1-1V2c0-.035.002-.069.005-.102Z" fill="#F7F7F7"/></svg>