<svg width="24" height="24" fill="none" xmlns="http://www.w3.org/2000/svg"><mask id="a" fill="#fff"><path fill-rule="evenodd" clip-rule="evenodd" d="M2.5 21.5v-19h9.138V6H7v1.5h4.638v2H7V11h4.638v2.5H7V15h4.638v6.5H2.5ZM1 2a1 1 0 0 1 1-1h10.138a1 1 0 0 1 1 1v7.5H22a1 1 0 0 1 1 1V22a1 1 0 0 1-1 1H2a1 1 0 0 1-1-1V2Zm12.5 19.5V11h8v2.5H16V15h5.5v2H16v1.5h5.5v3h-8Z"/></mask><path fill-rule="evenodd" clip-rule="evenodd" d="M2.5 21.5v-19h9.138V6H7v1.5h4.638v2H7V11h4.638v2.5H7V15h4.638v6.5H2.5ZM1 2a1 1 0 0 1 1-1h10.138a1 1 0 0 1 1 1v7.5H22a1 1 0 0 1 1 1V22a1 1 0 0 1-1 1H2a1 1 0 0 1-1-1V2Zm12.5 19.5V11h8v2.5H16V15h5.5v2H16v1.5h5.5v3h-8Z" fill="#F7F7F7"/><path d="M2.5 2.5V1H1v1.5h1.5Zm0 19H1V23h1.5v-1.5Zm9.138-19h1.5V1h-1.5v1.5Zm0 3.5v1.5h1.5V6h-1.5ZM7 6V4.5H5.5V6H7Zm0 1.5H5.5V9H7V7.5Zm4.638 0h1.5V6h-1.5v1.5Zm0 2V11h1.5V9.5h-1.5ZM7 9.5V8H5.5v1.5H7ZM7 11H5.5v1.5H7V11Zm4.638 0h1.5V9.5h-1.5V11Zm0 2.5V15h1.5v-1.5h-1.5ZM7 13.5V12H5.5v1.5H7ZM7 15H5.5v1.5H7V15Zm4.638 0h1.5v-1.5h-1.5V15Zm0 6.5V23h1.5v-1.5h-1.5Zm1.5-12h-1.5V11h1.5V9.5ZM13.5 11V9.5H12V11h1.5Zm0 10.5H12V23h1.5v-1.5Zm8-10.5H23V9.5h-1.5V11Zm0 2.5V15H23v-1.5h-1.5Zm-5.5 0V12h-1.5v1.5H16Zm0 1.5h-1.5v1.5H16V15Zm5.5 0H23v-1.5h-1.5V15Zm0 2v1.5H23V17h-1.5ZM16 17v-1.5h-1.5V17H16Zm0 1.5h-1.5V20H16v-1.5Zm5.5 0H23V17h-1.5v1.5Zm0 3V23H23v-1.5h-1.5ZM1 2.5v19h3v-19H1ZM11.638 1H2.5v3h9.138V1Zm1.5 5V2.5h-3V6h3Zm-1.5-1.5h-.069v3h.069v-3Zm-.069 0H8.5v3h3.069v-3ZM8.5 4.5H7v3h1.5v-3ZM5.5 6v1.5h3V6h-3ZM7 9h1.5V6H7v3Zm1.5 0h3.069V6H8.5v3Zm3.069 0h.069V6h-.069v3Zm1.569.5v-2h-3v2h3ZM11.569 11h.069V8h-.069v3ZM8.5 11h3.069V8H8.5v3ZM7 11h1.5V8H7v3Zm1.5 0V9.5h-3V11h3Zm0-1.5H7v3h1.5v-3Zm3.069 0H8.5v3h3.069v-3Zm.069 0h-.069v3h.069v-3Zm1.5 4V11h-3v2.5h3ZM11.569 15h.069v-3h-.069v3ZM8.5 15h3.069v-3H8.5v3ZM7 15h1.5v-3H7v3Zm1.5 0v-1.5h-3V15h3Zm0-1.5H7v3h1.5v-3Zm3.069 0H8.5v3h3.069v-3Zm.069 0h-.069v3h.069v-3Zm1.5 8V15h-3v6.5h3ZM2.5 23h9.138v-3H2.5v3ZM2-.5A2.5 2.5 0 0 0-.5 2h3a.5.5 0 0 1-.5.5v-3Zm10.138 0H2v3h10.138v-3Zm2.5 2.5a2.5 2.5 0 0 0-2.5-2.5v3a.5.5 0 0 1-.5-.5h3Zm0 7.5V2h-3v7.5h3ZM22 8h-8.862v3H22V8Zm2.5 2.5A2.5 2.5 0 0 0 22 8v3a.5.5 0 0 1-.5-.5h3Zm0 11.5V10.5h-3V22h3ZM22 24.5a2.5 2.5 0 0 0 2.5-2.5h-3a.5.5 0 0 1 .5-.5v3Zm-8 0h8v-3h-8v3Zm-1 0h1v-3h-1v3Zm-.862 0H13v-3h-.862v3ZM7 24.5h5.138v-3H7v3Zm-5 0h5v-3H2v3ZM-.5 22A2.5 2.5 0 0 0 2 24.5v-3a.5.5 0 0 1 .5.5h-3Zm0-20v20h3V2h-3ZM12 11v10.5h3V11h-3Zm9.5-1.5h-8v3h8v-3Zm1.5 4V11h-3v2.5h3ZM20.569 15h.931v-3h-.931v3ZM17.5 15h3.069v-3H17.5v3ZM16 15h1.5v-3H16v3Zm1.5 0v-1.5h-3V15h3Zm0-1.5H16v3h1.5v-3Zm3.069 0H17.5v3h3.069v-3Zm.931 0h-.931v3h.931v-3ZM23 17v-2h-3v2h3Zm-2.431 1.5h.931v-3h-.931v3Zm-3.069 0h3.069v-3H17.5v3Zm-1.5 0h1.5v-3H16v3Zm1.5 0V17h-3v1.5h3Zm0-1.5H16v3h1.5v-3Zm3.069 0H17.5v3h3.069v-3Zm.931 0h-.931v3h.931v-3Zm1.5 4.5v-3h-3v3h3ZM13.5 23h8v-3h-8v3Z" fill="#F7F7F7" mask="url(#a)"/></svg>