<svg width="180" height="180" fill="none" xmlns="http://www.w3.org/2000/svg"><mask id="a" fill="#fff"><rect width="180" height="180" rx="1"/></mask><rect width="180" height="180" rx="1" stroke="#21201F" stroke-width="8" mask="url(#a)"/><path fill-rule="evenodd" clip-rule="evenodd" d="M90 76.067c-13.09 0-23.6 10.291-23.6 22.864h-4c0-14.891 12.412-26.864 27.6-26.864 15.187 0 27.6 11.973 27.6 26.864h-4c0-12.573-10.511-22.864-23.6-22.864zm0 18.667c-3.096 0-5.2 2.187-5.2 4.416h-4c0-4.859 4.341-8.416 9.2-8.416 4.857 0 9.2 3.558 9.2 8.416h-4c0-2.229-2.106-4.416-5.2-4.416zM62 108.15h56v-4H62v4z" fill="#21201F"/></svg>