<svg width="58" height="58" viewBox="0 0 58 58" fill="none" xmlns="http://www.w3.org/2000/svg">
<path fill-rule="evenodd" clip-rule="evenodd" d="M29 15.7656C16.2189 15.7656 5.85776 26.1268 5.85776 38.9079H2.24839C2.24839 24.1334 14.2255 12.1562 29 12.1562C43.7745 12.1562 55.7516 24.1334 55.7516 38.9079H52.1422C52.1422 26.1268 41.7811 15.7656 29 15.7656ZM29.005 34.2449C26.1971 34.2449 23.9221 36.4129 23.9223 38.5998L20.3129 38.6C20.3126 33.9753 24.6791 30.6355 29.005 30.6355C33.331 30.6355 37.6971 33.9754 37.6971 38.5999H34.0877C34.0877 36.4128 31.8128 34.2449 29.005 34.2449ZM2.53125 44.761V47.6485H55.4688V44.761H2.53125Z" fill="#8F8F8F"/>
</svg>
