<svg width="20" height="20" fill="none" xmlns="http://www.w3.org/2000/svg"><path d="M15.562 19.99L4.457 20A4.456 4.456 0 01.01 15.562L0 4.457A4.456 4.456 0 014.438.011L15.543 0a4.456 4.456 0 014.446 4.438L20 15.543a4.454 4.454 0 01-4.437 4.446z" fill="url(#paint0_radial)"/><path d="M15.562 19.99L4.457 20A4.456 4.456 0 01.01 15.562L0 4.457A4.456 4.456 0 014.438.011L15.543 0a4.456 4.456 0 014.446 4.438L20 15.543a4.454 4.454 0 01-4.437 4.446z" fill="url(#paint1_radial)"/><path d="M12.688 4H7.311A3.315 3.315 0 004 7.312v5.376A3.315 3.315 0 007.311 16h5.377A3.315 3.315 0 0016 12.688V7.312A3.315 3.315 0 0012.688 4zm2.247 8.688a2.25 2.25 0 01-2.247 2.247H7.311a2.25 2.25 0 01-2.246-2.247V7.312A2.25 2.25 0 017.31 5.065h5.377a2.25 2.25 0 012.247 2.247v5.376z" fill="#fff"/><path d="M10 6.908A3.096 3.096 0 006.908 10 3.095 3.095 0 0010 13.092 3.095 3.095 0 0013.092 10 3.096 3.096 0 0010 6.908zm0 5.12A2.03 2.03 0 017.973 10 2.03 2.03 0 0110 7.973 2.03 2.03 0 0112.028 10 2.03 2.03 0 0110 12.027zM13.222 6.005a.784.784 0 00-.781.781.787.787 0 00.78.78.788.788 0 00.553-.228.784.784 0 00-.552-1.333z" fill="#fff"/><defs><radialGradient id="paint0_radial" cx="0" cy="0" r="1" gradientUnits="userSpaceOnUse" gradientTransform="translate(7.435 20.014) scale(24.9307)"><stop stop-color="#FD5"/><stop offset=".328" stop-color="#FF543F"/><stop offset=".348" stop-color="#FC5245"/><stop offset=".504" stop-color="#E64771"/><stop offset=".643" stop-color="#D53E91"/><stop offset=".761" stop-color="#CC39A4"/><stop offset=".841" stop-color="#C837AB"/></radialGradient><radialGradient id="paint1_radial" cx="0" cy="0" r="1" gradientUnits="userSpaceOnUse" gradientTransform="matrix(16.554 0 0 11.0299 3.218 -.25)"><stop stop-color="#4168C9"/><stop offset=".999" stop-color="#4168C9" stop-opacity="0"/></radialGradient></defs></svg>