<svg fill="none" viewBox="0 0 20 20" xmlns="http://www.w3.org/2000/svg"><path d="M10 20c5.523 0 10-4.477 10-10S15.523 0 10 0 0 4.477 0 10s4.477 10 10 10z" fill="#1ED760"/><path d="M14.375 15.5c-.164 0-.276-.059-.43-.156-1.47-.923-3.302-1.408-5.246-1.408-1.086 0-2.178.145-3.2.365-.165.037-.374.104-.5.104-.384 0-.64-.318-.64-.662 0-.442.245-.663.55-.723 1.253-.297 2.5-.466 3.796-.466 2.22 0 4.197.529 5.899 1.588.253.153.401.31.401.7 0 .38-.297.658-.63.658zm1.105-2.786c-.22 0-.359-.093-.508-.183-1.65-1.016-3.936-1.691-6.44-1.691-1.284 0-2.392.186-3.31.44-.197.057-.308.118-.493.118-.436 0-.792-.37-.792-.826 0-.447.209-.755.63-.878 1.14-.326 2.305-.576 3.999-.576 2.654 0 5.223.686 7.241 1.94.339.201.463.458.463.832 0 .455-.35.824-.79.824zm1.258-3.24c-.206 0-.33-.053-.523-.163-1.835-1.143-4.684-1.772-7.438-1.772-1.375 0-2.772.146-4.051.506-.147.038-.333.115-.52.115-.54 0-.956-.445-.956-1.006 0-.572.341-.893.71-1.006C5.405 5.706 7.019 5.5 8.773 5.5c2.978 0 6.11.636 8.4 2.03.308.183.521.456.521.957a.964.964 0 01-.956.986z" fill="#F7F7F7"/></svg>