<svg width="20" height="20" fill="none" xmlns="http://www.w3.org/2000/svg"><path d="M10 20c5.523 0 10-4.477 10-10S15.523 0 10 0 0 4.477 0 10s4.477 10 10 10z" fill="#59ADEB"/><path d="M16.603 6.243c-.46.21-.949.35-1.46.418a2.616 2.616 0 001.115-1.464c-.49.305-1.03.521-1.606.641A2.487 2.487 0 0012.802 5c-1.402 0-2.53 1.19-2.53 2.65 0 .21.016.412.058.604-2.105-.107-3.968-1.163-5.22-2.771-.218.397-.347.85-.347 1.34 0 .917.452 1.73 1.125 2.2a2.417 2.417 0 01-1.144-.325v.029c0 1.287.878 2.357 2.03 2.603-.207.059-.432.087-.665.087-.162 0-.326-.01-.48-.045.329 1.05 1.26 1.82 2.367 1.845a4.948 4.948 0 01-3.746 1.094A6.903 6.903 0 008.135 15.5c4.66 0 7.208-4.039 7.208-7.539 0-.117-.004-.23-.01-.342.503-.374.926-.84 1.27-1.376z" fill="#fff"/></svg>