<svg width="12" height="20" viewBox="0 0 12 20" fill="none" xmlns="http://www.w3.org/2000/svg">
<path d="M10.0195 9.43788C10.0028 7.66757 11.542 6.81767 11.6116 6.77623C10.7455 5.57281 9.3975 5.40795 8.91662 5.38855C7.77011 5.27835 6.67837 6.02949 6.09722 6.02949C5.51607 6.02949 4.61743 5.40442 3.6668 5.42205C2.41539 5.43969 1.2633 6.11237 0.619028 7.17561C-0.679733 9.31533 0.287608 12.4866 1.55202 14.2234C2.17123 15.0724 2.90834 16.0289 3.87753 15.9937C4.81145 15.9584 5.16423 15.4206 6.29125 15.4206C7.41826 15.4206 7.73576 15.9937 8.72259 15.9769C9.72614 15.9584 10.363 15.1094 10.9776 14.2578C11.6868 13.2721 11.9802 12.3182 11.9969 12.2679C11.9746 12.2591 10.0399 11.5547 10.0195 9.43788Z" fill="#F7F7F7"/>
<path d="M8.16523 4.23989C8.67953 3.64832 9.02673 2.82574 8.9311 2.00586C8.19022 2.0341 7.29349 2.4749 6.76153 3.06647C6.2853 3.5893 5.86755 4.42683 5.98076 5.23002C6.80702 5.29085 7.65085 4.8306 8.16523 4.23989Z" fill="#F7F7F7"/>
</svg>
