<svg width="30" height="30" viewBox="0 0 30 30" fill="none" xmlns="http://www.w3.org/2000/svg">
<path fill-rule="evenodd" clip-rule="evenodd" d="M19.4806 5H10.5191C7.47589 5 5 7.47601 5 10.5193V19.4807C5 22.524 7.47589 24.9999 10.5191 24.9999H19.4806C22.524 24.9999 24.9999 22.5239 24.9999 19.4807V10.5193C25 7.47601 22.524 5 19.4806 5ZM23.2256 19.4807C23.2256 21.5456 21.5456 23.2254 19.4807 23.2254H10.5191C8.45434 23.2256 6.77449 21.5456 6.77449 19.4807V10.5193C6.77449 8.45446 8.45434 6.77449 10.5191 6.77449H19.4806C21.5455 6.77449 23.2254 8.45446 23.2254 10.5193V19.4807H23.2256ZM15.0026 9.84863C12.1609 9.84863 9.84908 12.1604 9.84908 15.0021C9.84908 17.8437 12.1609 20.1553 15.0026 20.1553C17.8442 20.1553 20.156 17.8437 20.156 15.0021C20.156 12.1604 17.8442 9.84863 15.0026 9.84863ZM15.0026 18.3807C13.1395 18.3807 11.6236 16.8651 11.6236 15.002C11.6236 13.1388 13.1393 11.623 15.0026 11.623C16.8658 11.623 18.3815 13.1388 18.3815 15.002C18.3815 16.8651 16.8656 18.3807 15.0026 18.3807ZM19.449 8.72343C19.6905 8.48092 20.0263 8.34251 20.3682 8.34251C20.7113 8.34251 21.0473 8.48092 21.2886 8.72343C21.5311 8.96476 21.6695 9.30073 21.6695 9.6438C21.6695 9.98569 21.5311 10.3217 21.2886 10.5642C21.0461 10.8055 20.7113 10.9451 20.3682 10.9451C20.0263 10.9451 19.6904 10.8055 19.449 10.5642C19.2065 10.3217 19.0669 9.9858 19.0669 9.6438C19.0669 9.30073 19.2064 8.96476 19.449 8.72343Z" fill="#F7F7F7"/>
</svg>
