<svg width="30" height="30" viewBox="0 0 30 30" fill="none" xmlns="http://www.w3.org/2000/svg">
<path fill-rule="evenodd" clip-rule="evenodd" d="M5 7.40163C5 6.07582 6.07582 5 7.40163 5C8.72661 5 9.80243 6.07582 9.80327 7.40163C9.80327 8.72745 8.72745 9.82577 7.40163 9.82577C6.07582 9.82577 5 8.72745 5 7.40163ZM24.9954 24.9999V24.999H25.0004V17.6641C25.0004 14.0759 24.2279 11.3117 20.033 11.3117C18.0164 11.3117 16.663 12.4184 16.1106 13.4675H16.0522V11.6467H12.0748V24.999H16.2164V18.3875C16.2164 16.6467 16.5464 14.9633 18.7022 14.9633C20.8263 14.9633 20.858 16.95 20.858 18.4991V24.9999H24.9954ZM5.33033 11.6478H9.47694V25.0001H5.33033V11.6478Z" fill="#F7F7F7"/>
</svg>
