<svg width="30" height="30" viewBox="0 0 30 30" fill="none" xmlns="http://www.w3.org/2000/svg">
<path fill-rule="evenodd" clip-rule="evenodd" d="M15 13.5C16.3807 13.5 17.5 12.3807 17.5 11C17.5 9.61929 16.3807 8.5 15 8.5C13.6193 8.5 12.5 9.61929 12.5 11C12.5 12.3807 13.6193 13.5 15 13.5ZM19.5 11C19.5 12.879 18.3484 14.489 16.7124 15.1627C17.7798 15.3683 18.7801 15.7625 19.6772 16.3093C18.9264 16.5729 18.2502 16.9948 17.6885 17.5349C16.8607 17.1903 15.9526 17 15 17C11.829 17 9.15043 19.1085 8.28988 22H8.29795H8.31619H8.33434H8.35242H8.37041H8.38833H8.40616H8.42391H8.44159H8.45919H8.47671H8.49415H8.51152H8.52881H8.54602H8.56316H8.58023H8.59722H8.61414H8.63098H8.64776H8.66446H8.68109H8.69765H8.71414H8.73055H8.7469H8.76319H8.7794H8.79555H8.81162H8.82764H8.84358H8.85946H8.87528H8.89103H8.90672H8.92234H8.9379H8.9534H8.96884H8.98422H8.99953H9.01479H9.02998H9.04512H9.06019H9.07521H9.09017H9.10508H9.11993H9.13472H9.14946H9.16414H9.17876H9.19334H9.20786H9.22232H9.23674H9.2511H9.26541H9.27967H9.29388H9.30804H9.32215H9.33622H9.35023H9.3642H9.37812H9.39199H9.40582H9.4196H9.43334H9.44703H9.46068H9.47428H9.48785H9.50137H9.51484H9.52828H9.54168H9.55503H9.56835H9.58162H9.59486H9.60806H9.62122H9.63435H9.64744H9.66049H9.67351H9.68649H9.69944H9.71235H9.72523H9.73808H9.75089H9.76368H9.77643H9.78915H9.80184H9.8145H9.82713H9.83974H9.85231H9.86486H9.87738H9.88987H9.90234H9.91478H9.9272H9.93959H9.95196H9.96431H9.97663H9.98893H10.0012H10.0135H10.0257H10.0379H10.0501H10.0623H10.0744H10.0866H10.0987H10.1108H10.1229H10.135H10.147H10.1591H10.1711H10.1831H10.1951H10.2071H10.2191H10.231H10.243H10.2549H10.2669H10.2788H10.2907H10.3026H10.3145H10.3264H10.3383H10.3501H10.362H10.3739H10.3857H10.3976H10.4094H10.4213H10.4331H10.4449H10.4568H10.4686H10.4805H10.4923H10.5041H10.516H10.5278H10.5396H10.5515H10.5633H10.5752H10.587H10.5989H10.6107H10.6226H10.6345H10.6464H10.6582H10.6701H10.682H10.694H10.7059H10.7178H10.7297H10.7417H10.7537H10.7656H10.7776H10.7896H10.8016H10.8136H10.8257H10.8377H10.8498H10.8619H10.874H10.8861H10.8983H10.9104H10.9226H10.9348H10.947H10.9592H10.9715H10.9838H10.9961H11.0084H11.0207H11.0331H11.0455H11.0579H11.0703H11.0828H11.0953H11.1078H11.1204H11.1329H11.1455H11.1582H11.1708H11.1835H11.1962H11.209H11.2217H11.2346H11.2474H11.2603H11.2732H11.2861H11.2991H11.3121H11.3252H11.3383H11.3514H11.3645H11.3777H11.391H11.4042H11.4176H11.4309H11.4443H11.4577H11.4712H11.4847H11.4983H11.5119H11.5255H11.5392H11.5529H11.5667H11.5805H11.5944H11.6083H11.6223H11.6363H11.6504H11.6645H11.6786H11.6928H11.7071H11.7214H11.7357H11.7501H11.7646H11.7791H11.7937H11.8083H11.823H11.8377H11.8525H11.8673H11.8822H11.8972H11.9122H11.9273H11.9424H11.9576H11.9729H11.9882H12.0035H12.019H12.0345H12.05H12.0656H12.0813H12.097H12.1129H12.1287H12.1447H12.1607H12.1767H12.1929H12.2091H12.2254H12.2417H12.2581H12.2746H12.2912H12.3078H12.3245H12.3412H12.3581H12.375H12.392H12.409H12.4262H12.4434H12.4607H12.478H12.4954H12.513H12.5305H12.5482H12.566H12.5838H12.6017H12.6197H12.6377H12.6559H12.6741H12.6924H12.7108H12.7293H12.7479H12.7665H12.7852H12.804H12.8229H12.8419H12.861H12.8802H12.8994H12.9188H12.9382H12.9577H12.9773H12.997H13.0168H13.0367H13.0567H13.0767H13.0969H13.1171H13.1375H13.1579H13.1785H13.1991H13.2198H13.2407H13.2616H13.2826H13.3037H13.325H13.3463H13.3677H13.3892H13.4108H13.4326H13.4544H13.4763H13.4983H13.5205H13.5427H13.5651H13.5875H13.6101H13.6327H13.6555H13.6784H13.7014H13.7245H13.7477H13.771H13.7944H13.8179H13.8416H13.8653H13.8892H13.9132H13.9373H13.9615H13.9858H14.0103H14.0348H14.0595H14.0843H14.1092H14.1342H14.1593H14.1846H14.21H14.2354H14.2611H14.2868H14.3127H14.3386H14.3647H14.391H14.4173H14.4438H14.4704H14.4971H14.5239H14.5509H14.578H14.6052H14.6326H14.6601H14.6877H14.7154H14.7433H14.7713H14.7994H14.8277H14.8561H14.8846H14.9132H14.942H14.9709H15H15.0291H15.058H15.0868H15.1154H15.1439H15.1723H15.2006H15.2287H15.2567H15.2846H15.3123H15.3399H15.3674H15.3948H15.422H15.4491H15.4761H15.5029H15.5296H15.5562H15.5827H15.609H15.6353H15.6614H15.6873H15.7132H15.7389H15.7646H15.79H15.8154H15.8407H15.8658H15.8908H15.9157H15.9405H15.9652H15.9897H16.0142H16.0224C16.0868 22.7149 16.2881 23.3904 16.5997 24H15H8H6C6 23.3126 6.07706 22.6432 6.22302 22C7.00814 18.54 9.78678 15.8371 13.2876 15.1627C11.6516 14.489 10.5 12.879 10.5 11C10.5 8.51472 12.5147 6.5 15 6.5C17.4853 6.5 19.5 8.51472 19.5 11Z" fill="#6BE7C8"/>
<path d="M24 21.5C24 22.8807 22.8807 24 21.5 24C20.1193 24 19 22.8807 19 21.5C19 20.1193 20.1193 19 21.5 19C22.6877 19 23.6841 19.8292 23.9375 20.9412L24.9125 20.7189L23.9375 20.9412C23.9783 21.1199 24 21.3068 24 21.5Z" stroke="#6BE7C8" stroke-width="2"/>
<path d="M24 21V14H24.9405C25.7914 14.3004 27.7619 15.6522 26.687 18.3558" stroke="#6BE7C8" stroke-width="2"/>
</svg>
