<svg width="30" height="30" viewBox="0 0 30 30" fill="none" xmlns="http://www.w3.org/2000/svg">
<path fill-rule="evenodd" clip-rule="evenodd" d="M17.5 11C17.5 12.3807 16.3807 13.5 15 13.5C13.6193 13.5 12.5 12.3807 12.5 11C12.5 9.61929 13.6193 8.5 15 8.5C16.3807 8.5 17.5 9.61929 17.5 11ZM16.7124 15.1627C18.3484 14.489 19.5 12.879 19.5 11C19.5 8.51472 17.4853 6.5 15 6.5C12.5147 6.5 10.5 8.51472 10.5 11C10.5 12.879 11.6516 14.489 13.2876 15.1627C9.78678 15.8371 7.00814 18.54 6.22302 22C6.07706 22.6432 6 23.3126 6 24H8H15H22H24C24 23.3126 23.9229 22.6432 23.777 22C22.9919 18.54 20.2132 15.8371 16.7124 15.1627ZM15 17C18.171 17 20.8496 19.1085 21.7101 22H21.702H21.6838H21.6657H21.6476H21.6296H21.6117H21.5938H21.5761H21.5584H21.5408H21.5233H21.5059H21.4885H21.4712H21.454H21.4368H21.4198H21.4028H21.3859H21.369H21.3522H21.3355H21.3189H21.3024H21.2859H21.2694H21.2531H21.2368H21.2206H21.2045H21.1884H21.1724H21.1564H21.1405H21.1247H21.109H21.0933H21.0777H21.0621H21.0466H21.0312H21.0158H21.0005H20.9852H20.97H20.9549H20.9398H20.9248H20.9098H20.8949H20.8801H20.8653H20.8505H20.8359H20.8212H20.8067H20.7921H20.7777H20.7633H20.7489H20.7346H20.7203H20.7061H20.692H20.6778H20.6638H20.6498H20.6358H20.6219H20.608H20.5942H20.5804H20.5667H20.553H20.5393H20.5257H20.5122H20.4986H20.4852H20.4717H20.4583H20.445H20.4317H20.4184H20.4051H20.3919H20.3788H20.3657H20.3526H20.3395H20.3265H20.3135H20.3006H20.2876H20.2748H20.2619H20.2491H20.2363H20.2236H20.2108H20.1982H20.1855H20.1729H20.1603H20.1477H20.1351H20.1226H20.1101H20.0977H20.0852H20.0728H20.0604H20.048H20.0357H20.0234H20.0111H19.9988H19.9865H19.9743H19.9621H19.9499H19.9377H19.9256H19.9134H19.9013H19.8892H19.8771H19.865H19.853H19.8409H19.8289H19.8169H19.8049H19.7929H19.7809H19.769H19.757H19.7451H19.7331H19.7212H19.7093H19.6974H19.6855H19.6736H19.6617H19.6499H19.638H19.6261H19.6143H19.6024H19.5906H19.5787H19.5669H19.5551H19.5432H19.5314H19.5195H19.5077H19.4959H19.484H19.4722H19.4604H19.4485H19.4367H19.4248H19.413H19.4011H19.3893H19.3774H19.3655H19.3536H19.3418H19.3299H19.318H19.306H19.2941H19.2822H19.2703H19.2583H19.2463H19.2344H19.2224H19.2104H19.1984H19.1864H19.1743H19.1623H19.1502H19.1381H19.126H19.1139H19.1017H19.0896H19.0774H19.0652H19.053H19.0408H19.0285H19.0162H19.0039H18.9916H18.9793H18.9669H18.9545H18.9421H18.9297H18.9172H18.9047H18.8922H18.8796H18.8671H18.8545H18.8418H18.8292H18.8165H18.8038H18.791H18.7783H18.7654H18.7526H18.7397H18.7268H18.7139H18.7009H18.6879H18.6748H18.6617H18.6486H18.6355H18.6223H18.609H18.5958H18.5824H18.5691H18.5557H18.5423H18.5288H18.5153H18.5017H18.4881H18.4745H18.4608H18.4471H18.4333H18.4195H18.4056H18.3917H18.3777H18.3637H18.3496H18.3355H18.3214H18.3072H18.2929H18.2786H18.2643H18.2499H18.2354H18.2209H18.2063H18.1917H18.177H18.1623H18.1475H18.1327H18.1178H18.1028H18.0878H18.0727H18.0576H18.0424H18.0271H18.0118H17.9965H17.981H17.9655H17.95H17.9344H17.9187H17.903H17.8871H17.8713H17.8553H17.8393H17.8233H17.8071H17.7909H17.7746H17.7583H17.7419H17.7254H17.7088H17.6922H17.6755H17.6588H17.6419H17.625H17.608H17.591H17.5738H17.5566H17.5393H17.522H17.5046H17.487H17.4695H17.4518H17.434H17.4162H17.3983H17.3803H17.3623H17.3441H17.3259H17.3076H17.2892H17.2707H17.2521H17.2335H17.2148H17.196H17.1771H17.1581H17.139H17.1198H17.1006H17.0812H17.0618H17.0423H17.0227H17.003H16.9832H16.9633H16.9433H16.9233H16.9031H16.8829H16.8625H16.8421H16.8215H16.8009H16.7802H16.7593H16.7384H16.7174H16.6963H16.675H16.6537H16.6323H16.6108H16.5892H16.5674H16.5456H16.5237H16.5017H16.4795H16.4573H16.4349H16.4125H16.3899H16.3673H16.3445H16.3216H16.2986H16.2755H16.2523H16.229H16.2056H16.1821H16.1584H16.1347H16.1108H16.0868H16.0627H16.0385H16.0142H15.9897H15.9652H15.9405H15.9157H15.8908H15.8658H15.8407H15.8154H15.79H15.7646H15.7389H15.7132H15.6873H15.6614H15.6353H15.609H15.5827H15.5562H15.5296H15.5029H15.4761H15.4491H15.422H15.3948H15.3674H15.3399H15.3123H15.2846H15.2567H15.2287H15.2006H15.1723H15.1439H15.1154H15.0868H15.058H15.0291H15H14.9709H14.942H14.9132H14.8846H14.8561H14.8277H14.7994H14.7713H14.7433H14.7154H14.6877H14.6601H14.6326H14.6052H14.578H14.5509H14.5239H14.4971H14.4704H14.4438H14.4173H14.391H14.3647H14.3386H14.3127H14.2868H14.2611H14.2354H14.21H14.1846H14.1593H14.1342H14.1092H14.0843H14.0595H14.0348H14.0103H13.9858H13.9615H13.9373H13.9132H13.8892H13.8653H13.8416H13.8179H13.7944H13.771H13.7477H13.7245H13.7014H13.6784H13.6555H13.6327H13.6101H13.5875H13.5651H13.5427H13.5205H13.4983H13.4763H13.4544H13.4326H13.4108H13.3892H13.3677H13.3463H13.325H13.3037H13.2826H13.2616H13.2407H13.2198H13.1991H13.1785H13.1579H13.1375H13.1171H13.0969H13.0767H13.0567H13.0367H13.0168H12.997H12.9773H12.9577H12.9382H12.9188H12.8994H12.8802H12.861H12.8419H12.8229H12.804H12.7852H12.7665H12.7479H12.7293H12.7108H12.6924H12.6741H12.6559H12.6377H12.6197H12.6017H12.5838H12.566H12.5482H12.5305H12.513H12.4954H12.478H12.4607H12.4434H12.4262H12.409H12.392H12.375H12.3581H12.3412H12.3245H12.3078H12.2912H12.2746H12.2581H12.2417H12.2254H12.2091H12.1929H12.1767H12.1607H12.1447H12.1287H12.1129H12.097H12.0813H12.0656H12.05H12.0345H12.019H12.0035H11.9882H11.9729H11.9576H11.9424H11.9273H11.9122H11.8972H11.8822H11.8673H11.8525H11.8377H11.823H11.8083H11.7937H11.7791H11.7646H11.7501H11.7357H11.7214H11.7071H11.6928H11.6786H11.6645H11.6504H11.6363H11.6223H11.6083H11.5944H11.5805H11.5667H11.5529H11.5392H11.5255H11.5119H11.4983H11.4847H11.4712H11.4577H11.4443H11.4309H11.4176H11.4042H11.391H11.3777H11.3645H11.3514H11.3383H11.3252H11.3121H11.2991H11.2861H11.2732H11.2603H11.2474H11.2346H11.2217H11.209H11.1962H11.1835H11.1708H11.1582H11.1455H11.1329H11.1204H11.1078H11.0953H11.0828H11.0703H11.0579H11.0455H11.0331H11.0207H11.0084H10.9961H10.9838H10.9715H10.9592H10.947H10.9348H10.9226H10.9104H10.8983H10.8861H10.874H10.8619H10.8498H10.8377H10.8257H10.8136H10.8016H10.7896H10.7776H10.7656H10.7537H10.7417H10.7297H10.7178H10.7059H10.694H10.682H10.6701H10.6582H10.6464H10.6345H10.6226H10.6107H10.5989H10.587H10.5752H10.5633H10.5515H10.5396H10.5278H10.516H10.5041H10.4923H10.4805H10.4686H10.4568H10.4449H10.4331H10.4213H10.4094H10.3976H10.3857H10.3739H10.362H10.3501H10.3383H10.3264H10.3145H10.3026H10.2907H10.2788H10.2669H10.2549H10.243H10.231H10.2191H10.2071H10.1951H10.1831H10.1711H10.1591H10.147H10.135H10.1229H10.1108H10.0987H10.0866H10.0744H10.0623H10.0501H10.0379H10.0257H10.0135H10.0012H9.98893H9.97663H9.96431H9.95196H9.93959H9.9272H9.91478H9.90234H9.88987H9.87738H9.86486H9.85231H9.83974H9.82713H9.8145H9.80184H9.78915H9.77643H9.76368H9.75089H9.73808H9.72523H9.71235H9.69944H9.68649H9.67351H9.66049H9.64744H9.63435H9.62122H9.60806H9.59486H9.58162H9.56835H9.55503H9.54168H9.52828H9.51484H9.50137H9.48785H9.47428H9.46068H9.44703H9.43334H9.4196H9.40582H9.39199H9.37812H9.3642H9.35023H9.33622H9.32215H9.30804H9.29388H9.27967H9.26541H9.2511H9.23674H9.22232H9.20786H9.19334H9.17876H9.16414H9.14946H9.13472H9.11993H9.10508H9.09017H9.07521H9.06019H9.04512H9.02998H9.01479H8.99953H8.98422H8.96884H8.9534H8.9379H8.92234H8.90672H8.89103H8.87528H8.85946H8.84358H8.82764H8.81162H8.79555H8.7794H8.76319H8.7469H8.73055H8.71414H8.69765H8.68109H8.66446H8.64776H8.63098H8.61414H8.59722H8.58023H8.56316H8.54602H8.52881H8.51152H8.49415H8.47671H8.45919H8.44159H8.42391H8.40616H8.38833H8.37041H8.35242H8.33434H8.31619H8.29795H8.28988C9.15043 19.1085 11.829 17 15 17Z" fill="#595857"/>
</svg>
