<svg width="30" height="30" viewBox="0 0 30 30" fill="none" xmlns="http://www.w3.org/2000/svg">
<path d="M25 10.0125C24.2563 10.3538 23.4637 10.5801 22.6375 10.6899C23.4875 10.159 24.1363 9.32469 24.4412 8.31908C23.6488 8.81338 22.7738 9.16254 21.8412 9.35738C21.0887 8.51915 20.0162 8 18.8462 8C16.5763 8 14.7487 9.92754 14.7487 12.2905C14.7487 12.6305 14.7762 12.9575 14.8438 13.2687C11.435 13.0948 8.41875 11.3856 6.3925 8.782C6.03875 9.42408 5.83125 10.159 5.83125 10.9502C5.83125 12.4357 6.5625 13.7525 7.6525 14.5149C6.99375 14.5018 6.3475 14.3018 5.8 13.9866C5.8 13.9997 5.8 14.0167 5.8 14.0337C5.8 16.1182 7.22125 17.8495 9.085 18.2484C8.75125 18.3438 8.3875 18.3896 8.01 18.3896C7.7475 18.3896 7.4825 18.3739 7.23375 18.3164C7.765 20.0151 9.2725 21.2639 11.065 21.3045C9.67 22.4461 7.89875 23.1339 5.98125 23.1339C5.645 23.1339 5.3225 23.1182 5 23.0751C6.81625 24.3004 8.96875 25 11.29 25C18.835 25 22.96 18.4615 22.96 12.794C22.96 12.6044 22.9538 12.4213 22.945 12.2395C23.7588 11.6354 24.4425 10.8808 25 10.0125Z" fill="#F7F7F7"/>
</svg>
